<?xml version="1.0" encoding="UTF-8" standalone="no"?>
<svg
   xmlns:dc="http://purl.org/dc/elements/1.1/"
   xmlns:cc="http://creativecommons.org/ns#"
   xmlns:rdf="http://www.w3.org/1999/02/22-rdf-syntax-ns#"
   xmlns:svg="http://www.w3.org/2000/svg"
   xmlns="http://www.w3.org/2000/svg"
   xmlns:xlink="http://www.w3.org/1999/xlink"
   xmlns:sodipodi="http://sodipodi.sourceforge.net/DTD/sodipodi-0.dtd"
   xmlns:inkscape="http://www.inkscape.org/namespaces/inkscape"
   width="30mm"
   height="30mm"
   viewBox="0 0 30 30"
   version="1.1"
   id="svg8"
   sodipodi:docname="quiz.svg"
   inkscape:version="1.0.2 (e86c870879, 2021-01-15, custom)">
  <sodipodi:namedview
     pagecolor="#ffffff"
     bordercolor="#666666"
     borderopacity="1"
     objecttolerance="10"
     gridtolerance="10"
     guidetolerance="10"
     inkscape:pageopacity="0"
     inkscape:pageshadow="2"
     inkscape:window-width="1920"
     inkscape:window-height="1017"
     id="namedview1756"
     showgrid="false"
     inkscape:zoom="10.601691"
     inkscape:cx="54.282692"
     inkscape:cy="81.98586"
     inkscape:window-x="-8"
     inkscape:window-y="-8"
     inkscape:window-maximized="1"
     inkscape:current-layer="svg8"
     showguides="true"
     inkscape:guide-bbox="true"
     inkscape:snap-page="true">
    <sodipodi:guide
       position="16.411765,2.5411765"
       orientation="0,-1"
       id="guide2588" />
  </sodipodi:namedview>
  <defs
     id="defs2">
    <linearGradient
       inkscape:collect="always"
       id="linearGradient2600">
      <stop
         style="stop-color:#999999;stop-opacity:1"
         offset="0"
         id="stop2594" />
      <stop
         style="stop-color:#ffffff;stop-opacity:0"
         offset="0.48876408"
         id="stop2596" />
      <stop
         style="stop-color:#b3b3b3;stop-opacity:1"
         offset="1"
         id="stop2598" />
    </linearGradient>
    <linearGradient
       inkscape:collect="always"
       id="linearGradient2576">
      <stop
         style="stop-color:#999999;stop-opacity:1"
         offset="0"
         id="stop2572" />
      <stop
         style="stop-color:#ffffff;stop-opacity:0"
         offset="0.48876408"
         id="stop2586" />
      <stop
         style="stop-color:#b3b3b3;stop-opacity:1"
         offset="1"
         id="stop2574" />
    </linearGradient>
    <linearGradient
       id="linearGradient2821">
      <stop
         style="stop-color:#ff4cfe;stop-opacity:1"
         offset="0"
         id="stop2447" />
      <stop
         style="stop-color:#f9e8fd;stop-opacity:1"
         offset="1"
         id="stop2449" />
    </linearGradient>
    <radialGradient
       cx="145.29903"
       cy="106.93237"
       r="145.51834"
       fx="145.29903"
       fy="106.93237"
       id="radialGradient2827"
       xlink:href="#linearGradient2821-3"
       gradientUnits="userSpaceOnUse"
       gradientTransform="matrix(1,0,0,0.712223,318.2724,353.3454)" />
    <linearGradient
       id="linearGradient2821-3">
      <stop
         style="stop-color:#ff4cfe;stop-opacity:1"
         offset="0"
         id="stop2823" />
      <stop
         style="stop-color:#f9e8fd;stop-opacity:1"
         offset="1"
         id="stop2825" />
    </linearGradient>
    <pattern
       patternUnits="userSpaceOnUse"
       width="370"
       height="476"
       patternTransform="translate(18.50938,18)"
       id="pattern5932">
      <rect
         ry="20"
         rx="20"
         y="0"
         x="0"
         height="476"
         width="370"
         id="rect5934"
         style="fill:#00e5ff;fill-opacity:1" />
    </pattern>
    <pattern
       id="pattern4002"
       patternTransform="translate(18.50938,18)"
       height="476"
       width="370"
       patternUnits="userSpaceOnUse">
      <rect
         style="fill:#00e5ff;fill-opacity:1"
         id="rect2240"
         width="370"
         height="476"
         x="0"
         y="0"
         rx="20"
         ry="20" />
    </pattern>
    <marker
       style="overflow:visible"
       id="Arrow2Lstart"
       refX="0"
       refY="0"
       orient="auto">
      <path
         transform="matrix(1.1,0,0,1.1,1.1,0)"
         d="M 8.7185878,4.0337352 -2.2072895,0.01601326 8.7185884,-4.0017078 c -1.7454984,2.3720609 -1.7354408,5.6174519 -6e-7,8.035443 z"
         style="font-size:12px;fill-rule:evenodd;stroke-width:0.625;stroke-linejoin:round"
         id="path5785" />
    </marker>
    <linearGradient
       inkscape:collect="always"
       xlink:href="#linearGradient2600"
       id="linearGradient2584"
       x1="-20.964706"
       y1="20.294117"
       x2="-8.4000006"
       y2="20.294117"
       gradientUnits="userSpaceOnUse"
       spreadMethod="pad"
       gradientTransform="matrix(0.0983146,0,0,0.64724922,8.5674727,7.2646478)" />
    <linearGradient
       inkscape:collect="always"
       xlink:href="#linearGradient2576"
       id="linearGradient2592"
       gradientUnits="userSpaceOnUse"
       gradientTransform="matrix(0.0983146,0,0,0.58899679,24.31951,9.082123)"
       x1="-20.964706"
       y1="20.294117"
       x2="-8.4000006"
       y2="20.294117"
       spreadMethod="pad" />
  </defs>
  <metadata
     id="metadata5">
    <rdf:RDF>
      <cc:Work
         rdf:about="">
        <dc:format>image/svg+xml</dc:format>
        <dc:type
           rdf:resource="http://purl.org/dc/dcmitype/StillImage" />
        <dc:title />
      </cc:Work>
    </rdf:RDF>
  </metadata>
  <rect
     style="opacity:1;fill:url(#linearGradient2592);fill-opacity:1;stroke:none;stroke-width:0.772212"
     id="rect2590"
     width="1.235294"
     height="12.847059"
     x="22.258373"
     y="14.611763" />
  <rect
     style="opacity:1;fill:url(#linearGradient2584);fill-opacity:1;stroke:none;stroke-width:0.809498"
     id="rect2435"
     width="1.235294"
     height="14.117647"
     x="6.5063362"
     y="13.341176" />
  <path
     d="m 7.1615119,1.1149461 c 0.2390477,0.012681 0.4554475,0.1453885 0.5751205,0.3526881 L 13.924814,12.184482 c 0.126312,0.218805 0.126293,0.488389 -9.3e-5,0.707185 -0.126368,0.218805 -0.359877,0.353565 -0.612575,0.353546 H 0.93581991 c -0.25270729,0 -0.48622587,-0.134741 -0.61257485,-0.353546 -0.12637695,-0.218796 -0.12641425,-0.48838 -9.324e-5,-0.707185 L 6.5113708,1.4676342 C 6.6444331,1.2371086 6.8956858,1.100811 7.1615119,1.1149461 Z"
     style="fill:none;fill-opacity:1;stroke:#999999;stroke-width:0.45715;stroke-opacity:1"
     id="path4844" />
  <path
     d="M 3.876858,11.514966 C 3.8711331,11.066744 3.9408203,10.613292 4.0688663,10.18273 4.18522,9.7464342 4.3656386,9.3333175 4.5982061,8.9493289 4.8250581,8.559578 5.1102594,8.2047081 5.4301831,7.8906212 5.7499949,7.5767767 6.1165664,7.309235 6.5120328,7.0879961 6.9018862,6.8610043 7.3148817,6.6867954 7.7510566,6.5875139 8.0651435,6.512083 8.385291,6.4772487 8.6993686,6.4538642 8.8097643,6.4424051 8.9146588,6.4364377 9.0192923,6.4304797 L 9.7116709,7.1168537 9.0251384,7.8034888 C 8.7110702,7.8266495 8.3967501,7.850034 8.0942529,7.9197306 7.7743105,7.9953945 7.4602423,8.123543 7.1812321,8.2863114 6.8900635,8.4490798 6.6283772,8.6469435 6.3898423,8.8739074 6.1512981,9.1065868 5.9477188,9.3684036 5.7791043,9.6533718 5.6104898,9.9326151 5.4824439,10.240977 5.3893628,10.555045 c -0.093193,0.319821 -0.1513186,0.651549 -0.1396263,0.977338 0,0.01741 0,0.738905 0,0.738905 L 4.563232,11.584625 3.8768393,12.271288 v -0.756322 z"
     id="path7526_10_"
     style="fill:#999999;fill-opacity:1;stroke:none;stroke-width:0.00932396" />
  <g
     id="g2874"
     transform="matrix(0.02778364,0,0,0.02778364,15.752038,0.88538994)" />
  <g
     id="g2893"
     transform="matrix(0.02778364,0,0,0.02778364,15.752038,0.88538994)" />
  <path
     d="m 22.461388,1.5819536 c 0.09052,-0.1568665 0.259165,-0.2483302 0.440037,-0.2386893 0.162479,0.00867 0.308009,0.097854 0.389332,0.2387726 0,0 6.188417,10.7172061 6.188389,10.7171781 0.08518,0.147614 0.08516,0.331014 -5.6e-5,0.478629 -0.08524,0.147614 -0.244134,0.239272 -0.414643,0.239272 0,0 -12.376778,0 -12.376833,0 -0.170592,0 -0.329347,-0.09169 -0.414727,-0.2393 -0.08516,-0.147587 -0.08516,-0.330848 -5.5e-5,-0.478573 1.11e-4,0 6.188556,-10.7172061 6.188556,-10.7172894 z"
     style="fill:none;fill-opacity:1;stroke:none;stroke-width:0.0277836"
     id="yellow" />
  <path
     id="path1307"
     style="fill:#999999;fill-opacity:1;stroke:none;stroke-width:0.029187"
     d="M 22.876279,0.88537343 A 7.1239794,7.1239771 0 0 0 15.752166,8.0094862 7.1239794,7.1239771 0 0 0 22.876279,15.133599 7.1239794,7.1239771 0 0 0 29.999875,8.0094862 7.1239794,7.1239771 0 0 0 22.876279,0.88537343 Z m 3.367236,1.80040697 -0.38964,0.8407754 c 1.580382,0.9530411 3.048146,3.3441277 2.146122,6.2037561 L 26.254367,9.152569 C 26.706122,7.1745649 26.052312,6.1306482 25.05599,5.1724501 L 24.65033,6.0261449 23.089702,3.536891 c 1.183613,-0.6698377 2.182463,-0.8003707 3.153813,-0.8511106 z m -4.399731,0.03359 0.375687,1.79989 c -1.937823,0.601181 -2.512903,1.690369 -2.842204,3.0328899 L 20.318812,7.4751523 18.948353,10.07396 C 17.775237,9.3859037 17.161201,8.5872025 16.630148,7.7722914 l 0.922941,-0.084749 c 0.03192,-1.8452306 1.364319,-4.3143831 4.290695,-4.968172 z M 20.279538,10.28635 c 1.47325,1.395031 2.704174,1.362631 4.035929,0.992187 l -0.528649,-0.783414 2.937288,-0.07752 c -0.02531,1.359773 -0.42089,2.286002 -0.871265,3.148128 l -0.525549,-0.762743 c -1.624388,0.875935 -4.430423,0.923197 -6.433716,-1.307931 z" />
  <text
     xml:space="preserve"
     style="font-style:normal;font-weight:normal;font-size:34.9265px;line-height:1.25;font-family:sans-serif;fill:#333333;fill-opacity:1;stroke:none;stroke-width:0.583731;stroke-miterlimit:4;stroke-dasharray:none;stroke-opacity:1;"
     x="5.517972"
     y="27.415319"
     id="text930"><tspan
       id="tspan928"
       x="5.517972"
       y="27.415319"
       style="font-style:normal;font-variant:normal;font-weight:normal;font-stretch:normal;font-family:'Humnst777 Blk BT';-inkscape-font-specification:'Humnst777 Blk BT';fill:#333333;fill-opacity:1;stroke:none;stroke-width:0.583731;stroke-miterlimit:4;stroke-dasharray:none;stroke-opacity:1;">?</tspan></text>
</svg>
