<?xml version="1.0" encoding="UTF-8" standalone="no"?>
<svg
   xmlns:dc="http://purl.org/dc/elements/1.1/"
   xmlns:cc="http://creativecommons.org/ns#"
   xmlns:rdf="http://www.w3.org/1999/02/22-rdf-syntax-ns#"
   xmlns:svg="http://www.w3.org/2000/svg"
   xmlns="http://www.w3.org/2000/svg"
   xmlns:xlink="http://www.w3.org/1999/xlink"
   width="30mm"
   height="30mm"
   viewBox="0 0 30 30"
   version="1.1"
   id="svg8">
  <defs
     id="defs2"><radialGradient
   cx="145.29903"
   cy="106.93237"
   r="145.51834"
   fx="145.29903"
   fy="106.93237"
   id="radialGradient2827"
   xlink:href="#linearGradient2821"
   gradientUnits="userSpaceOnUse"
   gradientTransform="matrix(1,0,0,0.712223,318.2724,353.3454)" />
<linearGradient
   id="linearGradient2821">
  <stop
     style="stop-color:#ff4cfe;stop-opacity:1"
     offset="0"
     id="stop2823" />
  <stop
     style="stop-color:#f9e8fd;stop-opacity:1"
     offset="1"
     id="stop2825" />
</linearGradient>
<pattern
   patternUnits="userSpaceOnUse"
   width="370"
   height="476"
   patternTransform="translate(18.50938,18)"
   id="pattern5932">
  <rect
     ry="20"
     rx="20"
     y="0"
     x="0"
     height="476"
     width="370"
     id="rect5934"
     style="fill:#00e5ff;fill-opacity:1" />
</pattern>
<pattern
   id="pattern4002"
   patternTransform="translate(18.50938,18)"
   height="476"
   width="370"
   patternUnits="userSpaceOnUse">
  <rect
     style="fill:#00e5ff;fill-opacity:1"
     id="rect2240"
     width="370"
     height="476"
     x="0"
     y="0"
     rx="20"
     ry="20" />
</pattern>
<marker
   style="overflow:visible"
   id="Arrow2Lstart"
   refX="0"
   refY="0"
   orient="auto">
  <path
     transform="matrix(1.1,0,0,1.1,1.1,0)"
     d="M 8.7185878,4.0337352 -2.2072895,0.01601326 8.7185884,-4.0017078 c -1.7454984,2.3720609 -1.7354408,5.6174519 -6e-7,8.035443 z"
     style="font-size:12px;fill-rule:evenodd;stroke-width:0.625;stroke-linejoin:round"
     id="path5785" />
</marker>

			
				
			
		</defs>
  <metadata
     id="metadata5">
    <rdf:RDF>
      <cc:Work
         rdf:about="">
        <dc:format>image/svg+xml</dc:format>
        <dc:type
           rdf:resource="http://purl.org/dc/dcmitype/StillImage" />
        <dc:title></dc:title>
      </cc:Work>
    </rdf:RDF>
  </metadata>
  <g
     id="layer1">
    <g
       id="g989"
       transform="matrix(1.0067821,0,0,1.0067821,-79.632088,-110.00884)">
      <g
         id="g962"
         transform="matrix(0.1415198,0,0,0.1415198,79.884062,120.66284)">
        <g
           id="layer1-4"
           transform="matrix(0.06544064,0,0,0.06544064,-5.5717514,-74.305202)">
			
				<path
   d="m 768.0875,24.622 c 25.638,1.36 48.847,15.593 61.682,37.826 l 663.686,1149.388 c 13.547,23.467 13.545,52.38 -0.01,75.846 -13.553,23.467 -38.597,37.92 -65.699,37.918 H 100.3785 c -27.103,0 -52.148,-14.451 -65.699,-37.918 -13.554,-23.466 -13.558,-52.379 -0.01,-75.846 L 698.3595,62.448 c 14.271,-24.724 41.218,-39.342 69.728,-37.826 z"
   style="fill:#febe0b;fill-opacity:1;stroke:#d40000;stroke-width:49.0296;stroke-opacity:1"
   id="path4844" />

			<path
   d="m 415.8065,1140.03 c -0.614,-48.072 6.86,-96.705 20.593,-142.883 12.479,-46.793 31.829,-91.1 56.772,-132.283 24.33,-41.801 54.918,-79.861 89.23,-113.547 34.3,-33.66 73.615,-62.354 116.029,-86.082 41.812,-24.345 86.106,-43.029 132.886,-53.677 33.686,-8.09 68.022,-11.826 101.707,-14.334 11.84,-1.229 23.09,-1.869 34.312,-2.508 l 74.258,73.614 -73.631,73.642 c -33.684,2.484 -67.395,4.992 -99.838,12.467 -34.314,8.115 -67.998,21.859 -97.922,39.316 -31.228,17.457 -59.294,38.678 -84.877,63.02 -25.584,24.955 -47.418,53.035 -65.502,83.598 -18.084,29.949 -31.817,63.021 -41.8,96.705 -9.995,34.301 -16.229,69.879 -14.975,104.82 0,1.867 0,79.248 0,79.248 l -73.628,-73.645 -73.616,73.645 v -81.116 z"
   id="path7526_10_"
   style="fill:#000000;fill-opacity:1;stroke:none" />

		</g>
        <g
           id="g860"
           transform="matrix(0.19500081,0,0,0.19500081,104.98545,-74.305185)">
          <g
             id="g2874"
             transform="translate(-1.2492967e-4,5.7530595e-4)" />
          <g
             id="g2893"
             transform="translate(-1.2492967e-4,5.7530595e-4)" />
          <g
             id="g3797"
             transform="translate(-1.2492967e-4,5.7530595e-4)">
            <path
               d="m 241.48562,25.071 c 3.258,-5.646 9.328,-8.938 15.838,-8.591 5.848,0.312 11.086,3.522 14.013,8.594 0,0 222.736,385.738 222.735,385.737 3.066,5.313 3.065,11.914 -0.002,17.227 -3.068,5.313 -8.787,8.612 -14.924,8.612 0,0 -445.469995,0 -445.471995,0 -6.14,0 -11.854,-3.3 -14.927,-8.613 -3.065,-5.312 -3.065,-11.908 -0.002,-17.225 0.004,0 222.740995,-385.738 222.740995,-385.741 z"
               style="fill:#febe0b;fill-opacity:1;stroke:none"
               id="yellow" />
            <path
               d="M 4.4996249,402.583 227.23362,16.844 c 6.372,-11.036 18.233,-17.473 30.961,-16.796 11.429,0.604 21.668,6.885 27.391,16.797 0,-10e-4 222.735,385.738 222.735,385.738 5.998,10.39 5.997,23.296 -0.002,33.683 -5.999,10.387 -17.177,16.839 -29.174,16.839 H 33.674625 c -11.996,0 -23.179,-6.452 -29.1770001,-16.839 -5.996,-10.388 -5.998,-23.295 0.002,-33.683 z m 14.2500001,25.454 c 3.068,5.313 8.787,8.613 14.927,8.613 0.002,0 445.471995,0 445.471995,0 6.138,0 11.855,-3.3 14.924,-8.611 3.068,-5.312 3.069,-11.91 0.002,-17.228 0,0.001 -222.735,-385.737 -222.735,-385.737 -2.927,-5.068 -8.166,-8.28 -14.013,-8.594 -6.51,-0.347 -12.581,2.946 -15.838,8.592 0,0.001 -222.735995,385.74 -222.735995,385.74 -3.071,5.313 -3.069,11.912 -0.003,17.225 z"
               style="fill:#d40000;fill-opacity:1;stroke:none"
               id="boarder" />
            <path
               id="snow-1"
               d="m 246.50014,170.84371 v 26.6875 l -15,-8.28125 -10,15 25,14.84375 v 57.84375 l -50.09375,-28.90625 -0.34375,-29.0625 -16.15625,-2.125 -2.15625,20.40625 -23.12502,-13.34375 -10,17.3125 23.125,13.34375 -14.6875,8.84375 8,16.15625 25.34377,-14.21875 50.09375,28.90625 -50.09375,28.93751 -25.34377,-14.21876 -9.90625,12.90626 16.59375,12.09376 -23.125,13.34375 10,17.3125 23.12502,-13.34375 0.3125,17.125 18,1.15625 0.34375,-29.0625 50.09375,-28.90627 v 57.84377 l -25,14.8125 6.25,15.0625 18.75,-8.3125 v 26.6875 h 20 v -26.6875 l 15,8.25 10,-15 -25,-14.8125 v -57.84377 l 50.09377,28.90627 0.34375,29.0625 16.15625,2.125 2.15625,-20.40625 23.125,13.34375 10,-17.3125 -23.125,-13.34375 14.6875,-8.84375 -8,-16.15627 -25.34375,14.21876 -50.09377,-28.93751 50.09377,-28.90625 25.34375,14.21875 9.90625,-12.90625 -16.59375,-12.09375 23.125,-13.34375 -10,-17.3125 -23.125,13.34375 -0.3125,-17.125 -18,-1.15625 -0.34375,29.0625 -50.09377,28.90625 v -57.84375 l 25,-14.84375 -6.25,-15.03125 -18.75,8.3125 v -26.6875 z"
               style="fill:#000000;stroke:none" />
          </g>
        </g>
        <g
           transform="matrix(0.20113137,0,0,0.20111857,77.157204,-59.911899)"
           id="g11404">
          <path
             d="m 390.42439,244.34138 a 140.71134,122.87468 0 1 1 -281.42267,0 140.71134,122.87468 0 1 1 281.42267,0 z"
             transform="matrix(1.766691,0,0,2.023277,-54.21353,170.5199)"
             style="fill:#ffffff;fill-opacity:1;fill-rule:nonzero;stroke:none"
             id="path8679" />
          <g
             id="g11399">
            <path
               d="m 253.16571,673.53531 v -9.58298 l 299.03168,22.99915 4.79152,-7.66637 -17.24938,-2.54107 -1.91662,-56.87347 h 43.12346 c 0,0 36.47159,123.60907 -16.04086,117.87073 -15.76883,-1.72316 -17.49961,-38.33193 -17.49961,-38.33193 z"
               style="fill:#000000;fill-rule:evenodd;stroke:#000000;stroke-width:3.79467px;stroke-linecap:butt;stroke-linejoin:miter;stroke-opacity:1"
               id="path9603" />
            <path
               d="m 239.73038,602.00925 -21.706,37.84636 10.57471,11.13128 30.05447,-20.59287 22.26256,26.15851 0.55656,16.69693 6.12221,6.12224 -34.50698,13.3575 v 31.16763 l 21.14944,14.47067 v -15.58384 l -5.00908,-3.33934 v -17.81006 l 35.06354,-12.24441 12.24441,52.87359 -7.23533,13.91411 h 13.9141 l 5.00908,-9.46159 -7.23533,-58.43927 59.55239,-1.11313 3.33939,27.82824 -28.94137,41.18575 h 16.69692 l 24.48886,-36.17667 v -30.61103 l 33.95041,25.60195 12.24441,41.18575 10.57472,-5.00908 -8.34847,-44.52513 -23.93225,-23.93229 -1.66969,-28.94134 3.89594,-1.11312 4.45252,20.03634 25.60195,14.47063 -16.14036,-50.64733 -23.3757,3.89595 -15.58379,-12.80098 -85.71091,2.78282 -41.74231,-27.27164 -26.15851,-3.89595 -10.57472,-9.46159 z"
               style="fill:#000000;fill-opacity:1;fill-rule:evenodd;stroke:#000000;stroke-width:3.0134px;stroke-linecap:butt;stroke-linejoin:miter;stroke-opacity:1"
               id="path1932" />
            <path
               d="m 532.5,736.82648 a 28.392857,28.392857 0 1 1 -56.78571,0 28.392857,28.392857 0 1 1 56.78571,0 z"
               transform="translate(58.44731,-12.05148)"
               style="fill:#000000;fill-opacity:1;fill-rule:nonzero;stroke:#000000;stroke-width:0.4;stroke-miterlimit:4;stroke-dasharray:none;stroke-dashoffset:0;stroke-opacity:1"
               id="path11381" />
          </g>
          <path
             d="m 386.95233,416.28082 c -137.22631,0 -248.59379,111.39506 -248.59379,248.62501 0,137.22993 111.36749,248.59376 248.59379,248.59375 137.2262,0 248.5937,-111.36382 248.5937,-248.59375 0,-137.22994 -111.3675,-248.62501 -248.5937,-248.62501 z m 0,48.625 c 110.4,0 200,89.59999 200,200.00001 -10e-5,110.40003 -89.6,200 -200,200 -110.40008,-1e-5 -200.00004,-89.59998 -200.00004,-200 0,-110.40002 89.59997,-200.00001 200.00004,-200.00001 z"
             style="fill:#d40000;fill-opacity:1;fill-rule:nonzero;stroke:none"
             id="path3063" />
        </g>
        <g
           id="layer1-0"
           transform="matrix(0.20040965,0,0,0.20040965,-6.1744478,23.193088)">
          <ellipse
             style="fill:#003399;fill-opacity:1;stroke:none"
             id="path1307"
             transform="matrix(1.064892,0,0,0.981136,-167.3717,-286.6392)"
             cx="394.28571"
             cy="549.50507"
             rx="234.28572"
             ry="254.28572" />
          <path
             d="m 370.41984,66.05986 c -34.01768,1.776969 -68.99193,6.343895 -110.44325,29.802296 l 54.66399,87.178694 14.19374,-29.89452 c 34.8922,33.55708 57.79906,70.10921 41.97815,139.38088 l 61.13808,20.24326 C 463.54033,212.62343 412.1268,128.8736 356.78021,95.497137 Z"
             style="fill:#ffffff;fill-opacity:1;stroke:none"
             id="arrow3" />
          <path
             d="m 33.764957,244.18719 c 18.597995,28.539 40.089446,56.50635 81.173153,80.60278 l 48.00684,-91.01438 -32.98154,2.71317 c 11.53245,-47.01644 31.66699,-85.16592 99.53152,-106.2199 L 216.34609,67.223122 C 113.86146,90.119491 67.190881,176.60211 66.07304,241.22395 Z"
             style="fill:#ffffff;fill-opacity:1;stroke:none"
             id="path6594" />
          <path
             d="m 356.74028,447.07988 c 15.77258,-30.19248 29.62958,-62.62762 30.51582,-110.24824 l -102.86332,2.72282 18.51927,27.42591 c -46.63941,12.97335 -89.76138,14.10417 -141.35609,-34.75125 L 113.03,374.5716 c 70.15732,78.13638 168.41515,76.46812 225.30284,45.792 z"
             style="fill:#ffffff;fill-opacity:1;stroke:none"
             id="path6596" />
        </g>
      </g>
      <text
         xml:space="preserve"
         style="font-style:normal;font-weight:normal;font-size:34.6912px;line-height:1.25;font-family:sans-serif;fill:#00ff00;fill-opacity:1;stroke:none;stroke-width:0.579799;stroke-miterlimit:4;stroke-dasharray:none;stroke-opacity:1"
         x="84.576454"
         y="136.49841"
         id="text930"><tspan
           id="tspan928"
           x="84.576454"
           y="136.49841"
           style="font-style:normal;font-variant:normal;font-weight:normal;font-stretch:normal;font-family:'Humnst777 Blk BT';-inkscape-font-specification:'Humnst777 Blk BT';fill:#00ff00;fill-opacity:1;stroke:none;stroke-width:0.579799;stroke-miterlimit:4;stroke-dasharray:none;stroke-opacity:1">?</tspan></text>
    </g>
  </g>
</svg>
