<?xml version="1.0" encoding="UTF-8" standalone="no"?>
<!-- Created with Inkscape (http://www.inkscape.org/) -->

<svg
   xmlns:svg="http://www.w3.org/2000/svg"
   xmlns="http://www.w3.org/2000/svg"
   version="1.1"
   width="497"
   height="497"
   id="svg2">
  <defs
     id="defs4" />
  <g
     transform="translate(-145.03174,101.09802)"
     id="layer1">
    <path
       d="m 393.50235,-52.678555 c -133.98229,0 -200.07845,115.019746 -200.07845,200.109795 0,81.78724 62.92017,199.70827 200.07845,199.70827 133.94375,0 199.54265,-106.36432 199.54265,-199.70827 0,-134.101642 -114.86207,-200.109795 -199.54265,-200.109795 z"
       id="path41279"
       style="fill:#ffffff;fill-opacity:1;fill-rule:nonzero;stroke:none" />
    <path
       d="m 393.50235,-101.07072 c -137.1583,0 -248.47061,111.339923 -248.47061,248.50196 0,137.16203 111.31233,248.47075 248.47061,248.47073 137.15834,0 248.47058,-111.3087 248.47058,-248.47073 0,-137.16202 -111.31224,-248.50196 -248.47058,-248.50196 z m 0,48.600933 c 110.34533,0 199.90096,89.555648 199.90096,199.901027 0,110.34541 -89.55563,199.90104 -199.90096,199.90104 -110.34534,-1e-5 -199.90092,-89.55565 -199.90092,-199.90104 0,-110.345379 89.55558,-199.901027 199.90092,-199.901027 z"
       id="path3063-4"
       style="fill:#d40000;fill-opacity:1;fill-rule:nonzero;stroke:none" />
    <g
       transform="scale(0.96602357,1.0351714)"
       id="text2885"
       style="font-size:95.06620789px;font-style:normal;font-variant:normal;font-weight:bold;font-stretch:normal;text-align:start;line-height:125%;writing-mode:lr-tb;text-anchor:start;fill:none;stroke:#000000;stroke-width:1.04452384;stroke-opacity:1;font-family:Drogowskaz;-inkscape-font-specification:Drogowskaz Bold">
      <path
         d="m 283.05512,42.259881 c 5.52413,1.01e-4 10.25232,-1.966038 14.1846,-5.8984 3.93224,-3.93216 5.89838,-8.660353 5.89841,-14.184615 l 20.083,0 0,120.498054 -20.083,0 0,-80.332024 -20.08301,0 z"
         id="path3662"
         style="fill:#000000;stroke-width:1.76526916" />
      <path
         d="m 384.74447,52.5639 c -3.54876,9.704111 -5.32313,19.658109 -5.32308,29.861994 -5e-5,10.20402 1.77432,20.158006 5.32308,29.862006 1.06736,3.00926 3.06436,5.47612 5.99105,7.40056 2.92662,1.9245 6.25354,2.88673 9.98075,2.8867 3.72716,3e-5 7.05409,-0.9622 9.98079,-2.8867 2.92659,-1.92444 4.92188,-4.3913 5.98586,-7.40056 3.54865,-9.704 5.32299,-19.657986 5.32309,-29.862006 -1e-4,-10.203885 -1.77444,-20.157883 -5.32309,-29.861994 -1.06398,-3.009154 -3.05927,-5.475996 -5.98586,-7.400577 -2.9267,-1.924361 -6.25363,-2.886593 -9.98079,-2.886694 -3.72721,1.01e-4 -7.05413,0.962333 -9.98075,2.886694 -2.92669,1.924581 -4.92369,4.391423 -5.99105,7.400577 z m -19.16101,67.00203 c -4.96959,-13.55295 -7.4544,-25.932937 -7.4544,-37.140036 0,-11.206965 2.48481,-23.586956 7.4544,-37.140045 2.66152,-6.858062 7.18579,-12.41991 13.57281,-16.685562 6.38694,-4.265414 13.57277,-6.398172 21.55741,-6.398308 7.98457,1.36e-4 15.17124,2.132894 21.56002,6.398308 6.38867,4.265652 10.91379,9.8275 13.57543,16.685562 4.966,13.553089 7.44907,25.93308 7.44918,37.140045 -1.1e-4,11.207099 -2.48318,23.587086 -7.44918,37.140036 -2.66164,6.8582 -7.18676,12.42006 -13.57543,16.68559 -6.38878,4.26553 -13.57545,6.39829 -21.56002,6.39829 -7.98464,0 -15.17047,-2.13276 -21.55741,-6.39829 -6.38702,-4.26553 -10.91129,-9.82739 -13.57281,-16.68559 z"
         id="path3664"
         style="fill:#000000;stroke-width:1.81726146" />
      <path
         d="m 493.02939,63.45848 17.14546,-15.873726 0,31.747485 12.85904,0 0,15.873708 -12.85904,0 0,23.810603 c -4e-5,2.24777 0.82178,4.13252 2.46546,5.65426 1.64364,1.52177 3.67937,2.28264 6.10722,2.28261 l 8.99968,0 -8.99968,15.87374 c -7.14396,0 -13.2163,-2.31493 -18.217,-6.94476 -5.00078,-4.62984 -7.50116,-10.25176 -7.50114,-16.86585 l 0,-23.810603 -12.85906,0 0,-15.873708 12.85906,0 z"
         id="path3666"
         style="fill:#000000;stroke-width:1.45009291" />
    </g>
    <path
       d="m 300.37168,212.25883 73.72725,0 c 0,0 5.61737,-11.46608 19.51552,-11.46608 13.89816,0 19.355,11.46608 19.355,11.46608 l 73.72725,0 0,-15.21021 7.1826,0 0,-21.97029 c 0,0 9.54158,-2.09131 14.57644,-2.09131 5.03488,0 15.63272,2.09131 15.63272,2.09131 l 0,28.73038 6.33759,0 0,36.96925 -6.54884,0 0,28.73039 c 0,0 -9.52399,2.68881 -14.57645,2.68881 -5.05245,0 -15.73834,-2.68881 -15.73834,-2.68881 l 0,-21.88278 -6.84008,0 0,-16.56524 -72.48537,0 c 0,0 -5.45192,13.33077 -20.3387,13.33077 -14.88679,0 -21.06686,-13.33077 -21.06686,-13.33077 l -72.88224,0 0,16.05522 -6.54884,0 0,22.60406 c 0,0 -9.33032,2.6888 -14.36519,2.6888 -5.03487,0 -15.84397,-2.6888 -15.84397,-2.6888 l 0,-28.7304 -6.97134,0 0,-37.1805 6.97134,0 0,-28.73038 c 0,0 10.54807,-2.21816 15.63272,-2.21816 5.08465,0 14.87521,2.21816 14.87521,2.21816 l 0,22.18154 6.46132,0 0.21126,14.99896 z"
       id="path3610"
       style="fill:#000000;stroke:#000000;stroke-width:1.69002295;stroke-linecap:butt;stroke-linejoin:miter;stroke-miterlimit:4;stroke-opacity:1;stroke-dasharray:none" />
  </g>
</svg>
