<?xml version="1.0" encoding="UTF-8" standalone="no"?>
<!-- Created with Inkscape (http://www.inkscape.org/) -->

<svg
   xmlns:dc="http://purl.org/dc/elements/1.1/"
   xmlns:cc="http://creativecommons.org/ns#"
   xmlns:rdf="http://www.w3.org/1999/02/22-rdf-syntax-ns#"
   xmlns:svg="http://www.w3.org/2000/svg"
   xmlns="http://www.w3.org/2000/svg"
   xmlns:sodipodi="http://sodipodi.sourceforge.net/DTD/sodipodi-0.dtd"
   xmlns:inkscape="http://www.inkscape.org/namespaces/inkscape"
   width="497.1875"
   height="497.21875"
   id="svg2252"
   sodipodi:version="0.32"
   inkscape:version="0.48.2 r9819"
   sodipodi:docname="Aa.svg"
   version="1.0">
  <defs
     id="defs2254" />
  <sodipodi:namedview
     id="base"
     pagecolor="#ffffff"
     bordercolor="#666666"
     borderopacity="1.0"
     gridtolerance="10000"
     guidetolerance="10"
     objecttolerance="10"
     inkscape:pageopacity="0.0"
     inkscape:pageshadow="2"
     inkscape:zoom="0.98994949"
     inkscape:cx="50.464991"
     inkscape:cy="253.6833"
     inkscape:document-units="px"
     inkscape:current-layer="layer1"
     inkscape:window-width="1280"
     inkscape:window-height="1004"
     inkscape:window-x="-8"
     inkscape:window-y="-8"
     showgrid="false"
     fit-margin-top="0"
     fit-margin-left="0"
     fit-margin-right="0"
     fit-margin-bottom="0"
     inkscape:window-maximized="1" />
  <metadata
     id="metadata2257">
    <rdf:RDF>
      <cc:Work
         rdf:about="">
        <dc:format>image/svg+xml</dc:format>
        <dc:type
           rdf:resource="http://purl.org/dc/dcmitype/StillImage" />
      </cc:Work>
    </rdf:RDF>
  </metadata>
  <g
     inkscape:label="Layer 1"
     inkscape:groupmode="layer"
     id="layer1"
     transform="translate(-95.71416,-90.857633)">
    <g
       transform="translate(94.30791,89.46701)"
       id="g2361"
       inkscape:label="Layer 1">
      <path
         transform="matrix(1.776687,0,0,2.034593,-192.2554,-248.5258)"
         d="m 390.42439,244.34138 c 0,67.86182 -62.99861,122.87468 -140.71133,122.87468 -77.71273,0 -140.71134,-55.01286 -140.71134,-122.87468 0,-67.86181 62.99861,-122.87467 140.71134,-122.87467 77.71272,0 140.71133,55.01286 140.71133,122.87467 z"
         sodipodi:ry="122.87468"
         sodipodi:rx="140.71133"
         sodipodi:cy="244.34138"
         sodipodi:cx="249.71306"
         id="path8679"
         style="fill:#ffffff;fill-opacity:1;fill-rule:nonzero;stroke:none"
         sodipodi:type="arc" />
      <path
         id="path3063"
         d="m 250,1.390623 c -137.22627,0 -248.59375,111.395057 -248.59375,248.625007 0,137.22993 111.36749,248.59376 248.59375,248.59375 137.22627,0 248.59374,-111.36382 248.59375,-248.59375 C 498.59375,112.78569 387.22627,1.390623 250,1.390623 z m 0,48.625 c 110.40002,1e-6 200,89.599987 200,200.000007 -10e-6,110.40003 -89.59997,200 -200,200 -110.40004,-10e-6 -200,-89.59998 -200,-200 C 50,139.61561 139.59997,50.015623 250,50.015623 z"
         style="fill:#d40000;fill-opacity:1;fill-rule:nonzero;stroke:none"
         inkscape:connector-curvature="0" />
    </g>
    <g
       id="g2381"
       transform="translate(-735.7142,-34.28572)">
      <path
         sodipodi:nodetypes="cccccccc"
         id="text2270"
         d="m 983.27718,308.29436 0,-36.19421 122.16402,0 0,28.28974 c -26.2106,67.07005 -39.3294,103.39801 -62.671,172.23437 l -34.45,0 c 21.6087,-63.67734 34.1179,-101.93057 56.1878,-164.3299 l -81.23082,0 z"
         style="font-size:40px;font-style:normal;font-variant:normal;font-weight:normal;font-stretch:normal;text-align:start;line-height:125%;writing-mode:lr-tb;text-anchor:start;fill:#000000;fill-opacity:1;stroke:none;font-family:Arial"
         inkscape:connector-curvature="0" />
      <path
         sodipodi:nodetypes="ccccsssccssscccccccccc"
         id="text2275"
         d="m 1178.2493,403.18307 0,16.85484 -12.2498,0 0,22.61786 c -10e-5,5.98453 0.1037,9.47162 0.3112,10.46136 0.2074,0.98975 0.6788,1.80686 1.4143,2.45134 0.7355,0.64448 1.6313,0.96673 2.6874,0.9667 1.4709,3e-5 6.3765,-0.62143 9.1675,-1.86439 l 0,15.05327 c -3.6963,1.93347 -9.2995,2.90017 -13.9764,2.90021 -2.8665,-4e-5 -5.4502,-0.58696 -7.7509,-1.76084 -2.3008,-1.17387 -5.3759,-2.69302 -6.4508,-4.5574 -1.075,-1.86442 -1.8199,-4.38481 -2.2347,-7.56119 -0.3395,-2.25565 -0.5092,-6.81306 -0.5092,-13.67222 l 0,-25.0347 -14.2345,0 0,-16.85484 14.2345,0 0,-20.11894 17.3416,-11.32447 0,31.44341 12.2498,0 z"
         style="font-size:40px;font-style:normal;font-variant:normal;font-weight:bold;font-stretch:normal;text-align:start;line-height:125%;writing-mode:lr-tb;text-anchor:start;fill:#000000;fill-opacity:1;stroke:none;font-family:Arial"
         inkscape:connector-curvature="0" />
    </g>
  </g>
</svg>
