<?xml version="1.0" encoding="UTF-8" standalone="no"?>
<!-- Created with Inkscape (http://www.inkscape.org/) -->

<svg
   xmlns:dc="http://purl.org/dc/elements/1.1/"
   xmlns:cc="http://creativecommons.org/ns#"
   xmlns:rdf="http://www.w3.org/1999/02/22-rdf-syntax-ns#"
   xmlns:svg="http://www.w3.org/2000/svg"
   xmlns="http://www.w3.org/2000/svg"
   xmlns:sodipodi="http://sodipodi.sourceforge.net/DTD/sodipodi-0.dtd"
   xmlns:inkscape="http://www.inkscape.org/namespaces/inkscape"
   version="1.0"
   width="489.99994"
   height="489.99991"
   id="svg2"
   inkscape:version="0.48.2 r9819"
   sodipodi:docname="Aa.svg">
  <metadata
     id="metadata22">
    <rdf:RDF>
      <cc:Work
         rdf:about="">
        <dc:format>image/svg+xml</dc:format>
        <dc:type
           rdf:resource="http://purl.org/dc/dcmitype/StillImage" />
      </cc:Work>
    </rdf:RDF>
  </metadata>
  <sodipodi:namedview
     pagecolor="#ffffff"
     bordercolor="#666666"
     borderopacity="1"
     objecttolerance="10"
     gridtolerance="10"
     guidetolerance="10"
     inkscape:pageopacity="0"
     inkscape:pageshadow="2"
     inkscape:window-width="1280"
     inkscape:window-height="1004"
     id="namedview20"
     showgrid="false"
     fit-margin-top="0"
     fit-margin-left="0"
     fit-margin-right="0"
     fit-margin-bottom="0"
     inkscape:zoom="1.3350176"
     inkscape:cx="232.21693"
     inkscape:cy="237.99325"
     inkscape:window-x="-8"
     inkscape:window-y="-8"
     inkscape:window-maximized="1"
     inkscape:current-layer="svg2" />
  <defs
     id="defs4">
    <marker
       refX="0"
       refY="0"
       orient="auto"
       style="overflow:visible"
       id="Arrow2Lstart">
      <path
         d="M 8.7185878,4.0337352 -2.2072895,0.01601326 8.7185884,-4.0017078 c -1.7454984,2.3720609 -1.7354408,5.6174519 -6e-7,8.035443 z"
         transform="matrix(1.1,0,0,1.1,1.1,0)"
         style="font-size:12px;fill-rule:evenodd;stroke-width:0.625;stroke-linejoin:round"
         id="path5785"
         inkscape:connector-curvature="0" />
    </marker>
    <pattern
       id="pattern4002"
       patternTransform="translate(18.50938,18)"
       height="476"
       width="370"
       patternUnits="userSpaceOnUse">
      <rect
         style="fill:#00e5ff;fill-opacity:1"
         id="rect2240"
         width="370"
         height="476"
         x="0"
         y="0"
         rx="20"
         ry="20" />
    </pattern>
    <pattern
       patternUnits="userSpaceOnUse"
       width="370"
       height="476"
       patternTransform="translate(18.50938,18)"
       id="pattern5932">
      <rect
         ry="20"
         rx="20"
         y="0"
         x="0"
         height="476"
         width="370"
         id="rect5934"
         style="fill:#00e5ff;fill-opacity:1" />
    </pattern>
  </defs>
  <g
     id="layer1"
     transform="translate(-4.5983718,-5.4016712)">
    <g
       id="g3786">
      <path
         d="m 390.42439,244.34138 a 140.71134,122.87468 0 1 1 -281.42267,0 140.71134,122.87468 0 1 1 281.42267,0 z"
         transform="matrix(1.741153,0,0,1.993901,-185.1903,-236.7909)"
         style="fill:#003399;fill-opacity:1;fill-rule:nonzero;stroke:none"
         id="path1343"
         inkscape:connector-curvature="0" />
      <g
         style="fill:#ffffff;fill-opacity:1"
         id="g2897">
        <path
           d="m 138.30553,120.77663 c -39.03183,0 -70.984841,30.45053 -73.406245,68.875 l 43.749995,0 c 2.2593,-14.33704 14.68622,-25.3125 29.65625,-25.3125 16.56779,0 30,13.4322 30,30 0,16.5678 -13.4322,30.03125 -30,30.03125 -4.00037,0 -7.81992,-0.79473 -11.3125,-2.21875 l 0,37.09375 c 3.90431,-1.24732 8.05908,-1.9375 12.375,-1.9375 22.45684,0 40.65625,18.23066 40.65625,40.6875 0,22.45685 -18.19941,40.6875 -40.65625,40.6875 -22.00654,2e-5 -39.94531,-17.50882 -40.65625,-39.34375 l -43.374995,0 c 1.202602,44.75846 37.921431,80.68751 82.968745,80.6875 45.80509,0 82.96875,-37.16366 82.96875,-82.96875 0,-22.8312 -9.25046,-43.52309 -24.1875,-58.53125 9.27014,-12.30822 14.78125,-27.60327 14.78125,-44.1875 0,-40.60734 -32.95516,-73.5625 -73.5625,-73.5625 z"
           style="fill:#ffffff;fill-opacity:1;fill-rule:nonzero;stroke:none"
           id="path2844"
           inkscape:connector-curvature="0" />
        <path
           d="m 361.98492,127.02066 c -0.64994,0.003 -1.29983,0.0174 -1.94958,0.0309 -51.63531,0.82165 -78.94943,43.39346 -79.87119,119.68697 -0.0926,3.04268 -0.0453,6.08531 0,9.12813 0.93604,77.24329 28.92326,119.9169 81.82077,119.68698 53.05201,0.23059 81.04067,-42.69634 81.82077,-120.36772 0.0951,-2.81569 0.0452,-5.63143 0,-8.44739 -0.92174,-76.29351 -28.23586,-118.86532 -79.87118,-119.68697 -0.64964,-0.0268 -1.29963,-0.0342 -1.94959,-0.0309 z m 0,42.51546 c 27.37447,0 39.51782,35.51485 39.51782,81.75103 0,46.2362 -12.14336,81.75101 -39.51782,81.75101 -27.37445,10e-6 -39.51781,-35.51482 -39.51781,-81.75101 0,-46.23617 12.14335,-81.75103 39.51781,-81.75103 z"
           style="fill:#ffffff;fill-opacity:1;fill-rule:nonzero;stroke:none"
           id="path2868"
           inkscape:connector-curvature="0" />
      </g>
      <g
         id="g2870">
        <path
           d="M 393.28125,51.96875 51.1875,394.0625 c 15.005618,20.68013 33.146896,38.95751 53.75,54.0625 L 447.3125,105.75 C 432.20466,85.141228 413.96696,66.977325 393.28125,51.96875 z"
           style="fill:#ffffff;fill-opacity:1;fill-rule:nonzero;stroke:none"
           id="path2867"
           inkscape:connector-curvature="0" />
        <path
           d="m 397.84375,55.40625 -343.25,343.25 c 13.164999,17.28462 28.563481,32.78324 45.78125,46.03125 l 343.5,-343.5 C 430.62328,83.962873 415.13498,68.575277 397.84375,55.40625 z"
           style="fill:#d40000;fill-opacity:1;fill-rule:nonzero;stroke:none"
           id="path2864"
           inkscape:connector-curvature="0" />
      </g>
    </g>
  </g>
</svg>
