<?xml version="1.0" encoding="UTF-8" standalone="no"?>
<!-- Created with Inkscape (http://www.inkscape.org/) -->
<svg
   xmlns:dc="http://purl.org/dc/elements/1.1/"
   xmlns:cc="http://creativecommons.org/ns#"
   xmlns:rdf="http://www.w3.org/1999/02/22-rdf-syntax-ns#"
   xmlns:svg="http://www.w3.org/2000/svg"
   xmlns="http://www.w3.org/2000/svg"
   xmlns:sodipodi="http://sodipodi.sourceforge.net/DTD/sodipodi-0.dtd"
   xmlns:inkscape="http://www.inkscape.org/namespaces/inkscape"
   version="1.0"
   width="500.00009"
   height="500.00021"
   id="svg10969"
   inkscape:version="0.46"
   sodipodi:docname="Znak_B-35b.svg"
   sodipodi:version="0.32"
   inkscape:output_extension="org.inkscape.output.svg.inkscape">
  <metadata
     id="metadata16">
    <rdf:RDF>
      <cc:Work
         rdf:about="">
        <dc:format>image/svg+xml</dc:format>
        <dc:type
           rdf:resource="http://purl.org/dc/dcmitype/StillImage" />
      </cc:Work>
    </rdf:RDF>
  </metadata>
  <sodipodi:namedview
     pagecolor="#ffffff"
     bordercolor="#666666"
     borderopacity="1"
     objecttolerance="10"
     gridtolerance="10"
     guidetolerance="10"
     inkscape:pageopacity="0"
     inkscape:pageshadow="2"
     inkscape:window-width="1280"
     inkscape:window-height="712"
     id="namedview14"
     showgrid="false"
     fit-margin-top="0"
     fit-margin-left="0"
     fit-margin-right="0"
     fit-margin-bottom="0"
     inkscape:zoom="0.9439996"
     inkscape:cx="45.313688"
     inkscape:cy="249.92903"
     inkscape:window-x="-4"
     inkscape:window-y="-4"
     inkscape:window-maximized="1"
     inkscape:current-layer="g14051" />
  <defs
     id="defs10971" />
  <g
     transform="translate(-178.57139,-162.36211)"
     id="layer1">
    <g
       id="g14051">
      <path
         d="m 390.42439,244.34138 a 140.71134,122.87468 0 1 1 -281.42267,0 140.71134,122.87468 0 1 1 281.42267,0 z"
         transform="matrix(-1.743421,0,0,1.996373,863.9264,-75.43433)"
         style="fill:#ffffff;fill-opacity:1;fill-rule:nonzero;stroke:none"
         id="path8679"
         inkscape:connector-curvature="0" />
      <path
         d="m 31.428558,219.50504 a 310,310 0 1 1 -619.999998,0 310,310 0 1 1 619.999998,0 z"
         transform="matrix(0.639516,0,0,0.639516,606.7223,271.9852)"
         style="fill:#0f00fb;fill-opacity:1;fill-rule:nonzero;stroke:none"
         id="path11256"
         inkscape:connector-curvature="0" />
      <rect
         width="467.75955"
         height="49.133499"
         ry="0"
         x="-828.50928"
         y="-36.009895"
         transform="matrix(-0.707129,-0.707085,-0.707129,0.707085,0,0)"
         style="fill:#ff0000;fill-opacity:1;fill-rule:nonzero;stroke:#ffffff;stroke-width:3.5;stroke-miterlimit:4;stroke-opacity:1;stroke-dasharray:none;stroke-dashoffset:0"
         id="rect3274" />
      <path
         d="m 428.57143,162.36211 c 138.00256,0 250.00005,112.01821 250.00005,250.01582 0,137.99759 -111.9975,249.98439 -250.00005,249.98438 -138.00256,0 -250.00003,-111.98679 -250.00004,-249.98438 0,-137.9976 111.99748,-250.01582 250.00004,-250.01582 z m 0,48.89701 c -111.02455,0 -201.1314,90.10121 -201.1314,201.11881 1e-5,111.01761 90.10684,201.1188 201.1314,201.1188 111.02457,-10e-6 201.1314,-90.1012 201.1314,-201.1188 0,-111.0176 -90.10684,-201.11881 -201.1314,-201.11881 z"
         style="fill:#ff0000;fill-opacity:1;fill-rule:nonzero;stroke:none"
         id="path3063"
         inkscape:connector-curvature="0" />
      <path
         d="m 390.42439,244.34138 a 140.71134,122.87468 0 1 1 -281.42267,0 140.71134,122.87468 0 1 1 281.42267,0 z"
         transform="matrix(-1.743421,0,0,1.996373,863.9264,-75.43433)"
         style="fill:#ffffff;fill-opacity:1;fill-rule:nonzero;stroke:none"
         id="path14027"
         inkscape:connector-curvature="0" />
      <path
         d="m 31.428558,219.50504 a 310,310 0 1 1 -619.999998,0 310,310 0 1 1 619.999998,0 z"
         transform="matrix(0.63871,0,0,0.63871,606.4978,272.1621)"
         style="fill:#003399;fill-opacity:1;fill-rule:nonzero;stroke:none"
         id="path14029"
         inkscape:connector-curvature="0" />
      <rect
         width="467.75986"
         height="49.13353"
         ry="0"
         x="-828.50952"
         y="-36.010014"
         transform="matrix(-0.707129,-0.707085,-0.707129,0.707085,0,0)"
         style="fill:#d40000;fill-opacity:1;fill-rule:nonzero;stroke:#ffffff;stroke-width:3.50000238;stroke-miterlimit:4;stroke-opacity:1;stroke-dasharray:none;stroke-dashoffset:0"
         id="rect14031" />
      <path
         d="m 428.57143,162.36211 c 138.00256,0 250.00005,112.01821 250.00005,250.01582 0,137.99759 -111.9975,249.98439 -250.00005,249.98438 -138.00256,0 -250.00003,-111.98679 -250.00004,-249.98438 0,-137.9976 111.99748,-250.01582 250.00004,-250.01582 z m 0,48.89701 c -111.02455,0 -201.1314,90.10121 -201.1314,201.11881 1e-5,111.01761 90.10684,201.1188 201.1314,201.1188 111.02457,-10e-6 201.1314,-90.1012 201.1314,-201.1188 0,-111.0176 -90.10684,-201.11881 -201.1314,-201.11881 z"
         style="fill:#d40000;fill-opacity:1;fill-rule:nonzero;stroke:none"
         id="path14033"
         inkscape:connector-curvature="0" />
      <path
         transform="translate(146.66139,222.46374)"
         style="font-size:40px;font-style:normal;font-weight:normal;fill:#ffffff;fill-opacity:1;stroke:none;stroke-width:1px;stroke-linecap:butt;stroke-linejoin:miter;stroke-opacity:1;font-family:Bitstream Vera Sans"
         d="M 67.000033,206.62731 C 67.036484,205.18591 67.526068,203.9906 68.46879,203.04136 C 69.41149,202.09215 70.588577,201.59997 72.000052,201.56479 C 73.411501,201.59997 74.588587,202.09215 75.531315,203.04136 C 76.474009,203.9906 76.963594,205.18591 77.000072,206.62731 C 76.963595,208.06873 76.47401,209.26405 75.531316,210.21326 C 74.588587,211.16249 73.411501,211.65468 72.000052,211.68983 C 70.588576,211.65468 69.411489,211.16249 68.468788,210.21327 C 67.526066,209.26405 67.036482,208.06873 67.000033,206.62731 L 67.000033,206.62731 z M 62.000014,196.62728 L 62.000014,226.62739 L 67.000033,226.62739 L 67.000033,215.27865 C 67.739224,215.70979 68.529443,216.04169 69.370691,216.27438 C 70.211918,216.50706 71.088371,216.62472 72.000052,216.62735 C 74.822964,216.55444 77.177137,215.57527 79.062579,213.68984 C 80.947979,211.80442 81.927149,209.45025 82.000091,206.62731 C 81.92715,203.8044 80.94798,201.45023 79.062579,199.56479 C 77.177136,197.67938 74.822963,196.70021 72.000052,196.62728 C 71.088371,196.62993 70.211918,196.74759 69.370691,196.98025 C 68.529442,197.21295 67.739223,197.54485 67.000033,197.97597 L 67.000033,196.62728 L 62.000014,196.62728 L 62.000014,196.62728 z M 86.84376,206.62731 C 86.919903,209.63597 87.957614,212.13994 89.956896,214.13921 C 91.956167,216.13849 94.460133,217.17621 97.4688,217.25235 C 100.47744,217.17621 102.98141,216.13849 104.9807,214.13921 C 106.97996,212.13994 108.01767,209.63597 108.09384,206.62731 C 108.01767,203.61867 106.97996,201.1147 104.9807,199.11541 C 102.98141,197.11615 100.47744,196.07844 97.4688,196.00227 C 94.460133,196.07844 91.956167,197.11615 89.956896,199.11541 C 87.957613,201.1147 86.919902,203.61867 86.84376,206.62731 L 86.84376,206.62731 z M 91.843779,206.62731 C 91.884084,205.03451 92.43346,203.70888 93.49191,202.65042 C 94.550341,201.592 95.87597,201.04262 97.4688,201.00229 C 99.061603,201.04262 100.38723,201.592 101.44569,202.65042 C 102.50411,203.70888 103.05349,205.03451 103.09382,206.62731 C 103.05349,208.22014 102.50411,209.54577 101.44569,210.6042 C 100.38723,211.66265 99.061603,212.21203 97.4688,212.25234 C 95.87597,212.21203 94.550342,211.66265 93.49191,210.6042 C 92.433459,209.54577 91.884083,208.22014 91.843779,206.62731 L 91.843779,206.62731 z M 114.34376,196.62728 L 114.34376,216.62735 L 119.34378,216.62735 L 119.34378,205.37731 C 119.37089,204.31522 119.73724,203.43141 120.44284,202.72586 C 121.14842,202.02034 122.03207,201.65415 123.0938,201.62729 C 124.15566,201.65419 125.03942,202.02044 125.74506,202.72605 C 126.45067,203.43169 126.81692,204.31544 126.84381,205.37731 L 126.84381,216.62735 L 131.84383,216.62735 L 131.84383,204.1273 C 131.7879,202.00356 131.05109,200.23606 129.63338,198.82478 C 128.21564,197.41355 126.45245,196.68105 124.3438,196.62728 C 123.37605,196.63283 122.46727,196.80633 121.61748,197.14776 C 120.76766,197.48924 120.00977,197.96545 119.34378,198.57641 L 119.34378,196.62728 L 114.34376,196.62728 L 114.34376,196.62728 z M 137.96876,206.62731 C 138.04167,209.45025 139.02084,211.80442 140.90627,213.68984 C 142.79169,215.57526 145.14586,216.55443 147.9688,216.62735 C 149.0489,216.62299 150.07768,216.45957 151.05511,216.13709 C 152.03252,215.81461 152.9324,215.35925 153.75476,214.77102 L 154.21882,216.62735 L 159.21884,216.62735 L 157.96884,211.62733 L 157.96884,196.62728 L 152.96882,196.62728 L 152.96882,197.97597 C 152.2296,197.54485 151.43938,197.21295 150.59816,196.98025 C 149.75691,196.74758 148.88045,196.62993 147.9688,196.62728 C 145.14586,196.70021 142.79169,197.67938 140.90627,199.56479 C 139.02084,201.45022 138.04167,203.8044 137.96876,206.62731 L 137.96876,206.62731 z M 142.96878,206.62731 C 143.00523,205.18591 143.49481,203.9906 144.43753,203.04136 C 145.38024,202.09215 146.55732,201.59997 147.9688,201.56479 C 149.38025,201.59997 150.55733,202.09215 151.50006,203.04136 C 152.44276,203.9906 152.93234,205.18591 152.96882,206.62731 C 152.93234,208.06873 152.44276,209.26405 151.50006,210.21326 C 150.55733,211.16249 149.38025,211.65468 147.9688,211.68983 C 146.55732,211.65468 145.38023,211.16249 144.43753,210.21327 C 143.49481,209.26405 143.00523,208.06873 142.96878,206.62731 L 142.96878,206.62731 z M 164.06251,206.62731 C 164.13542,209.45025 165.11459,211.80442 167.00002,213.68984 C 168.88544,215.57526 171.23961,216.55443 174.06255,216.62735 C 174.9742,216.62472 175.85066,216.50706 176.69191,216.27438 C 177.53313,216.04169 178.32335,215.70979 179.06257,215.27865 L 179.06257,216.62735 L 184.06259,216.62735 L 184.06259,186.62724 L 179.06257,186.62724 L 179.06257,197.97597 C 178.32335,197.54485 177.53313,197.21295 176.69191,196.98025 C 175.85066,196.74758 174.9742,196.62993 174.06255,196.62728 C 171.23961,196.70021 168.88544,197.67938 167.00002,199.56479 C 165.11459,201.45022 164.13542,203.8044 164.06251,206.62731 L 164.06251,206.62731 z M 169.06253,206.62731 C 169.09898,205.18591 169.58856,203.9906 170.53128,203.04136 C 171.47399,202.09215 172.65107,201.59997 174.06255,201.56479 C 175.474,201.59997 176.65108,202.09215 177.59381,203.04136 C 178.53651,203.9906 179.02609,205.18591 179.06257,206.62731 C 179.02609,208.06873 178.53651,209.26405 177.59381,210.21326 C 176.65108,211.16249 175.474,211.65468 174.06255,211.68983 C 172.65107,211.65468 171.47398,211.16249 170.53128,210.21327 C 169.58856,209.26405 169.09898,208.06873 169.06253,206.62731 L 169.06253,206.62731 z"
         id="flowRoot2405" />
      <path
         transform="translate(227.59406,268.55152)"
         style="font-size:40px;font-style:normal;font-weight:normal;fill:#ffffff;fill-opacity:1;stroke:none;stroke-width:1px;stroke-linecap:butt;stroke-linejoin:miter;stroke-opacity:1;font-family:Bitstream Vera Sans"
         d="M 62.625017,215.14852 L 62.625017,232.64859 L 80.125083,232.64859 L 80.125083,302.64886 L 97.62515,302.64886 L 97.62515,197.64846 L 80.125083,197.70314 C 79.999647,202.6431 78.290482,206.75436 74.997582,210.03694 C 71.704648,213.31971 67.580464,215.02357 62.625017,215.14852 L 62.625017,215.14852 z M 147.13089,215.14852 L 183.59403,215.14852 L 183.59403,197.64846 L 131.09383,197.64846 L 126.71881,250.14866 L 152.96891,250.14866 C 157.92076,250.26264 162.04393,251.94884 165.33842,255.20727 C 168.63281,258.46579 170.34299,262.61294 170.46898,267.64872 C 170.34299,272.68458 168.63281,276.83172 165.33842,280.09017 C 162.04392,283.34867 157.92076,285.03487 152.96891,285.14879 C 152.00254,285.14677 151.05732,285.07201 150.13324,284.92449 L 124.15768,280.82846 L 122.70311,298.35202 L 147.54236,302.2278 C 149.31322,302.50616 151.12207,302.64651 152.96891,302.64886 C 162.87274,302.39365 171.1191,298.96655 177.70801,292.36757 C 184.29679,285.7686 187.71713,277.52899 187.96904,267.64872 C 187.71713,257.76852 184.2968,249.52891 177.70802,242.92988 C 171.1191,236.33096 162.87274,232.90387 152.96891,232.64859 C 150.4396,232.65318 147.98558,232.91342 145.60685,233.42931 L 147.13089,215.14852 L 147.13089,215.14852 z"
         id="flowRoot2413" />
      <path
         transform="translate(366.16735,263.879)"
         style="font-size:72px;font-style:normal;font-weight:normal;fill:#ffffff;fill-opacity:1;stroke:none;stroke-width:1px;stroke-linecap:butt;stroke-linejoin:miter;stroke-opacity:1;font-family:Bitstream Vera Sans"
         d="M 66.21878,212.83687 L 66.21878,255.33703 L 76.843821,255.33703 L 76.843821,230.10256 C 76.891394,228.22217 77.539964,226.65719 78.789531,225.40762 C 80.039057,224.1581 81.604035,223.50953 83.484471,223.46191 C 85.364855,223.50953 86.929833,224.1581 88.179409,225.40762 C 89.428926,226.65719 90.077496,228.22217 90.125122,230.10256 L 90.125122,255.33703 L 100.75016,255.33703 L 100.75016,230.10256 C 100.79771,228.22217 101.44628,226.65719 102.69587,225.40762 C 103.94537,224.1581 105.51035,223.50953 107.39081,223.46191 C 109.27117,223.50953 110.83615,224.1581 112.08575,225.40762 C 113.33524,226.65719 113.98381,228.22217 114.03146,230.10256 L 114.03146,255.33703 L 124.6565,255.33703 L 124.6565,228.77443 C 124.54222,224.26148 122.98565,220.50553 119.9868,217.50657 C 116.98782,214.5077 113.23187,212.95113 108.71894,212.83687 C 106.52289,212.85085 104.47067,213.26222 102.56228,214.07097 C 100.65379,214.8798 98.972817,216.00238 97.519355,217.4387 C 96.285721,216.01417 94.807933,214.89496 93.085989,214.08108 C 91.363974,213.26727 89.4916,212.85253 87.468861,212.83687 C 85.277549,212.8567 83.266801,213.33914 81.436609,214.28418 C 79.606371,215.2293 78.075443,216.51828 76.843821,218.15112 L 76.843821,212.83687 L 66.21878,212.83687 L 66.21878,212.83687 z M 140.59378,212.83687 L 140.59378,255.33703 L 151.21882,255.33703 L 151.21882,212.83687 L 140.59378,212.83687 L 140.59378,212.83687 z M 140.59378,191.58679 L 140.59378,202.21183 L 151.21882,202.21183 L 151.21882,191.58679 L 140.59378,191.58679 L 140.59378,191.58679 z M 167.15628,212.83687 L 167.15628,255.33703 L 177.78132,255.33703 L 177.78132,231.43069 C 177.83892,229.17376 178.61742,227.29565 180.11682,225.79636 C 181.61618,224.29713 183.49394,223.51898 185.7501,223.46191 C 188.00657,223.51905 189.88454,224.29733 191.38403,225.79676 C 192.88345,227.29625 193.66174,229.17422 193.71888,231.43069 L 193.71888,255.33703 L 204.34392,255.33703 L 204.34392,228.77443 C 204.22508,224.26148 202.65934,220.50553 199.64672,217.50657 C 196.63402,214.5077 192.88724,212.95113 188.40636,212.83687 C 186.34988,212.84867 184.41874,213.21735 182.61293,213.9429 C 180.80707,214.66854 179.19653,215.68049 177.78132,216.97877 L 177.78132,212.83687 L 167.15628,212.83687 L 167.15628,212.83687 z"
         id="flowRoot2421" />
    </g>
  </g>
</svg>
