<?xml version="1.0" encoding="UTF-8" standalone="no"?>
<!-- Created with Inkscape (http://www.inkscape.org/) -->

<svg
   xmlns:dc="http://purl.org/dc/elements/1.1/"
   xmlns:cc="http://creativecommons.org/ns#"
   xmlns:rdf="http://www.w3.org/1999/02/22-rdf-syntax-ns#"
   xmlns:svg="http://www.w3.org/2000/svg"
   xmlns="http://www.w3.org/2000/svg"
   xmlns:sodipodi="http://sodipodi.sourceforge.net/DTD/sodipodi-0.dtd"
   xmlns:inkscape="http://www.inkscape.org/namespaces/inkscape"
   version="1.0"
   width="497.19662"
   height="497.2099"
   id="svg2"
   inkscape:version="0.48.2 r9819"
   sodipodi:docname="Aa.svg">
  <metadata
     id="metadata14">
    <rdf:RDF>
      <cc:Work
         rdf:about="">
        <dc:format>image/svg+xml</dc:format>
        <dc:type
           rdf:resource="http://purl.org/dc/dcmitype/StillImage" />
      </cc:Work>
    </rdf:RDF>
  </metadata>
  <sodipodi:namedview
     pagecolor="#ffffff"
     bordercolor="#666666"
     borderopacity="1"
     objecttolerance="10"
     gridtolerance="10"
     guidetolerance="10"
     inkscape:pageopacity="0"
     inkscape:pageshadow="2"
     inkscape:window-width="1280"
     inkscape:window-height="1004"
     id="namedview12"
     showgrid="false"
     fit-margin-top="0"
     fit-margin-left="0"
     fit-margin-right="0"
     fit-margin-bottom="0"
     inkscape:zoom="0.94397511"
     inkscape:cx="116.30671"
     inkscape:cy="206.09551"
     inkscape:window-x="-8"
     inkscape:window-y="-8"
     inkscape:window-maximized="1"
     inkscape:current-layer="svg2" />
  <defs
     id="defs4" />
  <g
     transform="translate(84.669754,-186.97151)"
     id="layer1">
    <path
       d="m 663.91965,627.25543 a 179.3574,175.39369 0 1 1 -358.71479,0 179.3574,175.39369 0 1 1 358.71479,0 z"
       transform="matrix(1.38605,0,0,1.417411,-507.69895,-453.50228)"
       style="fill:#d40000;fill-opacity:1;fill-rule:nonzero;stroke:none"
       id="path3063"
       inkscape:connector-curvature="0" />
    <path
       d="m 390.42439,244.34138 a 140.71134,122.87468 0 1 1 -281.42267,0 140.71134,122.87468 0 1 1 281.42267,0 z"
       transform="matrix(1.42135,0,0,1.627675,-191.00095,37.87472)"
       style="fill:#ffffff;fill-opacity:1;fill-rule:nonzero;stroke:none"
       id="path6586"
       inkscape:connector-curvature="0" />
    <path
       d="m 312.50001,444.22116 -47.42658,0 c 0,14.86009 -12.06037,26.92046 -26.92054,26.92046 -14.86009,0 -26.92046,-12.06037 -26.92046,-26.92046 0,0 0,0 0,0 l -121.337572,0 c 0,14.86009 -12.060374,26.92046 -26.920507,26.92046 -14.860123,0 -26.920493,-12.06037 -26.920493,-26.92046 0,0 0,0 0,0 0,0 -27.9625099,0 -27.9625099,0 l 0,-8.9345 -7.0199156,0 0,-7.65809 7.0199156,0 0,-44.35303 24.8887439,-8.93443 6.381752,-38.29041 31.90866,0 0,-12.76347 10.210759,-10.21076 219.531607,0 11.48714,11.48713 0,119.65756 z m -274.414539,-68.92281 3.509981,-21.37879 28.398713,0 0,21.05973 -31.908694,0.31906 z"
       style="fill:#000000;fill-opacity:1;fill-rule:evenodd;stroke:none"
       id="path2170"
       inkscape:connector-curvature="0" />
    <path
       d="m 63.571429,515.21936 0,39.99997 -64.800817,-19.99997 64.800817,-20 z"
       style="fill:#000000;fill-opacity:1;fill-rule:evenodd;stroke:none"
       id="path4150"
       inkscape:connector-curvature="0" />
    <path
       d="m 263.05633,515.21936 0,39.99997 64.80081,-19.99997 -64.80081,-20 z"
       style="fill:#000000;fill-opacity:1;fill-rule:evenodd;stroke:none"
       id="path5123"
       inkscape:connector-curvature="0" />
    <path
       d="m 230.08972,548.99024 c -8.45015,0.0823 -14.14716,5.53703 -14.14716,5.53703 0,0 -6.59336,-5.53703 -13.70844,-5.53703 -7.55585,0 -13.07114,4.12677 -14.41987,5.24129 l 0,-5.24129 -14.13536,0 0,56.83802 14.13536,0 0,-35.94385 c 0.51376,-1.53867 2.65864,-6.64918 8.58548,-6.64918 7.73171,0 8.9176,7.09881 8.9176,7.09881 l 0.23714,35.49422 14.13537,0 0.0474,-35.49422 c 0,0 1.56529,-7.16985 9.15467,-7.16985 6.16194,0 8.68525,6.42391 8.9176,7.05152 l 0,35.61255 14.13528,0 0.0474,-35.49422 c -0.50537,-11.86051 -10.25168,-21.14392 -21.90255,-21.3438 z"
       style="fill:#000000;fill-opacity:1;stroke:none"
       id="path17695"
       inkscape:connector-curvature="0" />
    <path
       d="m 123.2853,488.27583 c -10.50249,18.16072 -29.814801,47.62095 -29.814801,47.62095 -8.995071,12.92563 -13.94403,22.08667 -13.94403,32.33255 0,20.75464 17.507438,37.59893 38.296971,37.59893 20.78909,0 37.66143,-16.84429 37.66143,-37.59893 0,-20.28686 -16.12266,-36.83155 -36.26454,-37.5673 l 26.29337,-42.3862 -22.2284,0 z m -5.46186,60.93201 c 10.51697,0 19.05289,8.52158 19.05289,19.02149 0,10.49978 -8.53592,19.02134 -19.05289,19.02134 -10.51741,0 -19.053333,-8.52156 -19.053333,-19.02134 0,-10.49991 8.535923,-19.02149 19.053333,-19.02149 z"
       style="fill:#000000;fill-opacity:1;stroke:none"
       id="path20002"
       inkscape:connector-curvature="0" />
  </g>
</svg>
