<?xml version="1.0" encoding="UTF-8" standalone="no"?>
<!-- Created with Inkscape (http://www.inkscape.org/) -->

<svg
   xmlns:svg="http://www.w3.org/2000/svg"
   xmlns="http://www.w3.org/2000/svg"
   version="1.1"
   width="500.00003"
   height="500.13321"
   id="svg2">
  <defs
     id="defs4" />
  <g
     transform="translate(-32.999945,-298.29555)"
     id="layer1">
    <g
       id="g2915">
      <g
         transform="translate(-898.061,119.4909)"
         id="layer1-0">
        <g
           transform="translate(234.2857,22.85714)"
           id="g10384">
          <g
             transform="translate(6.060915,22.22336)"
             id="g10349">
            <path
               d="m 390.42439,244.34138 a 140.71134,122.87468 0 1 1 -281.42267,0 140.71134,122.87468 0 1 1 281.42267,0 z"
               transform="matrix(1.776687,0,0,2.034593,497.0524,-113.3445)"
               id="path8679"
               style="fill:#ffffff;fill-opacity:1;fill-rule:nonzero;stroke:none" />
            <g
               transform="translate(4.471687e-5,-3.697189e-6)"
               id="g10332">
              <path
                 d="M 739.45605,440.4455 808.46758,384.02392 736.192,327.13604 739.45605,440.4455 z"
                 id="path10320"
                 style="fill:#000000;fill-rule:evenodd;stroke:none" />
              <path
                 d="m 1141.9726,440.44551 -69.0116,-56.42159 72.2756,-56.88788 -3.264,113.30947 z"
                 id="path10322"
                 style="fill:#000000;fill-rule:evenodd;stroke:none" />
            </g>
            <path
               d="m 940.7143,135.18139 c -137.22627,0 -248.59375,111.39506 -248.59375,248.62501 0,137.22993 111.36749,248.59376 248.59375,248.59375 137.2263,0 248.5937,-111.36382 248.5938,-248.59375 0,-137.22994 -111.3675,-248.62501 -248.5938,-248.62501 z m 0,48.625 c 110.4,0 200,89.59999 200,200.00001 0,110.40003 -89.6,200 -200,200 -110.40004,-1e-5 -200,-89.59998 -200,-200 0,-110.40002 89.59997,-200.00001 200,-200.00001 z"
               id="path3063"
               style="fill:#d40000;fill-opacity:1;fill-rule:nonzero;stroke:none" />
          </g>
          <g
             transform="matrix(0.63439,0,0,0.63439,850.2265,82.62499)"
             id="g10378" />
        </g>
      </g>
      <g
         id="text2902"
         style="font-size:11px;font-style:normal;font-variant:normal;font-weight:normal;font-stretch:normal;text-align:start;line-height:100%;writing-mode:lr-tb;text-anchor:start;fill:#000000;fill-opacity:1;stroke:none;font-family:Drogowskaz;-inkscape-font-specification:Drogowskaz">
        <path
           d="m 267.57816,587.75623 0,21.875 -71.09375,0 0,-14.21662 51.40838,-68.90945 c 2.18601,-2.91587 3.27904,-6.19676 3.27912,-9.84268 -8e-5,-4.5572 -1.59513,-8.43089 -4.78516,-11.6211 -3.19017,-3.18999 -7.06386,-4.78505 -11.62109,-4.78515 -4.55735,10e-5 -8.43104,1.59516 -11.6211,4.78515 -3.19014,3.19021 -4.78519,7.0639 -4.78515,11.6211 l -21.875,0 c -2e-5,-10.57424 3.7366,-19.59803 11.20986,-27.07139 7.47322,-7.47311 16.497,-11.20973 27.07139,-11.20986 10.57427,1.3e-4 19.59806,3.73675 27.07138,11.20986 7.47315,7.47336 11.20977,16.49715 11.20987,27.07139 -1e-4,8.7515 -2.64368,16.58968 -7.93076,23.51455 l -35.54688,47.5792 z"
           id="path2911"
           style="font-size:175px;fill:#000000" />
        <path
           d="m 295.23441,549.63123 15,0 0,7.5 c 3.74997,-4.99995 8.74996,-7.49994 15,-7.5 5.74946,6e-5 10.49921,2.18755 14.24926,6.5625 4.37494,-4.37495 9.62518,-6.56244 15.75074,-6.5625 6.24992,6e-5 11.56241,2.18755 15.9375,6.5625 4.3749,4.37504 6.5624,9.68754 6.5625,15.9375 l 0,37.5 -15,0 0,-35.625 c -8e-5,-2.62448 -0.90645,-4.8431 -2.71912,-6.65589 -1.81282,-1.8127 -4.03144,-2.71907 -6.65588,-2.71911 -2.62458,4e-5 -4.84321,0.90641 -6.65589,2.71911 -1.8128,1.81279 -2.71917,4.03141 -2.71911,6.65589 l 0,35.625 -15,0 0,-35.625 c -5e-5,-2.62448 -0.90642,-4.8431 -2.71912,-6.65589 -1.81279,-1.8127 -4.03141,-2.71907 -6.65588,-2.71911 -2.62455,4e-5 -4.84317,0.90641 -6.65589,2.71911 -1.81277,1.81279 -2.71914,4.03141 -2.71911,6.65589 l 0,35.625 -15,0 z"
           id="path2913"
           style="font-size:120px;fill:#000000" />
      </g>
    </g>
  </g>
</svg>
