<?xml version="1.0" encoding="UTF-8" standalone="no"?>
<!-- Created with Inkscape (http://www.inkscape.org/) -->

<svg
   xmlns:svg="http://www.w3.org/2000/svg"
   xmlns="http://www.w3.org/2000/svg"
   version="1.2"
   width="500.08517"
   height="500.24207"
   id="svg2">
  <defs
     id="defs4" />
  <g
     transform="translate(287.04254,-42.241111)"
     id="layer1">
    <g
       id="g3140">
      <g
         transform="translate(198.26139,-109.08334)"
         id="layer1-7">
        <g
           id="g10962">
          <path
             d="m -428.57141,118.57164 a 304.28571,304.28571 0 1 1 -608.57139,0 304.28571,304.28571 0 1 1 608.57139,0 z"
             transform="matrix(0.821736,0,0,0.821736,366.9537,304.0109)"
             id="path8158"
             style="fill:#ffffff;fill-opacity:1;fill-rule:nonzero;stroke:none" />
          <path
             d="m -464.92277,302.67479 c -54.52132,126.77293 4.11771,273.91073 130.89073,328.43205 126.77303,54.5214 273.91077,-4.1177 328.43207,-130.89071 54.52141,-126.77299 -4.1177,-273.91073 -130.89072,-328.43208 -126.77293,-54.52137 -273.91067,4.11771 -328.43208,130.89074 z m 2.29665,0.98768 c 53.97618,-125.50532 199.64236,-183.558 325.14779,-129.58183 C -11.973,228.05685 46.07965,373.72304 -7.89654,499.22837 -61.87268,624.73377 -207.53891,682.78633 -333.04428,628.81029 -458.54972,574.83407 -516.60229,429.1678 -462.62612,303.66247 z"
             id="path3467"
             style="fill:#000000;fill-opacity:1;fill-rule:nonzero;stroke:none" />
          <path
             d="m -288.7672,644.54186 c 34.15578,-79.41903 154.09086,-358.2919 193.10249,-449.00163 1.10573,-2.57103 -20.72907,-14.12422 -43.00298,-23.28042 -21.05558,-8.65554 -42.57328,-15.04797 -43.12659,-13.76141 -39.07527,90.85772 -149.38425,347.34798 -193.10251,449.0016 -0.18307,0.42578 16.32891,11.62535 36.03709,20.11322 23.07982,9.93996 49.91962,17.33061 50.0925,16.92864 z"
             id="path3465"
             style="fill:#000000;fill-rule:evenodd;stroke:#000000;stroke-width:0.56346178px;stroke-linecap:butt;stroke-linejoin:miter;stroke-opacity:1" />
        </g>
      </g>
      <g
         id="text3131"
         style="font-size:11px;font-style:normal;font-variant:normal;font-weight:normal;font-stretch:normal;text-align:start;line-height:100%;writing-mode:lr-tb;text-anchor:start;fill:#a9a8a7;fill-opacity:1;stroke:none;font-family:Drogowskaz;-inkscape-font-specification:Drogowskaz">
        <path
           d="m -205.63818,216.73318 -3.38684,40.6894 c 5.48697,-1.29278 10.97718,-1.93924 16.47064,-1.9394 21.31112,1.6e-4 39.55558,7.58901 54.73343,22.76658 15.17755,15.17783 22.7664,33.42229 22.76657,54.73342 -1.7e-4,21.3113 -7.58902,39.55576 -22.76657,54.73343 -15.17785,15.17773 -33.42231,22.76657 -54.73343,22.76657 -3.87888,0 -7.91533,-0.32165 -12.10938,-0.96496 l -54.73816,-8.72254 2.90436,-38.75 57.64252,9.20502 c 2.2578,0.3217 4.35802,0.48252 6.30066,0.48248 10.65236,4e-5 19.7738,-3.71318 27.36435,-11.13967 7.5903,-7.4264 11.38552,-16.62983 11.38565,-27.61033 -1.3e-4,-10.98033 -3.79535,-20.18377 -11.38565,-27.61032 -7.59055,-7.42634 -16.71199,-11.13956 -27.36435,-11.13968 l -58.125,0 9.6875,-116.25 116.25,0 0,38.75 z"
           id="path3136"
           style="font-size:310px;fill:#a9a8a7" />
        <path
           d="m 80.625549,236.59067 c -6.458388,18.73184 -9.687552,37.946 -9.6875,57.64251 -5.2e-5,19.69676 3.229112,38.91091 9.6875,57.64252 1.942482,5.80877 5.576868,10.57053 10.903168,14.28528 5.326155,3.71484 11.380833,5.57224 18.164063,5.5722 6.78304,4e-5 12.83773,-1.85736 18.16406,-5.5722 5.32612,-3.71475 8.95735,-8.47651 10.89371,-14.28528 6.45821,-18.73161 9.68737,-37.94576 9.6875,-57.64252 -1.3e-4,-19.69651 -3.22929,-38.91067 -9.6875,-57.64251 -1.93636,-5.80854 -5.56759,-10.57029 -10.89371,-14.28528 -5.32633,-3.71461 -11.38102,-5.57201 -18.16406,-5.57221 -6.78323,2e-4 -12.837908,1.8576 -18.164063,5.57221 -5.3263,3.71499 -8.960686,8.47674 -10.903168,14.28528 z m -34.871216,129.3338 c -9.044207,-26.16123 -13.566297,-50.0583 -13.566284,-71.69129 -1.3e-5,-21.63275 4.522077,-45.52982 13.566284,-71.69128 4.843719,-13.23812 13.077455,-23.97414 24.701233,-32.2081 11.623676,-8.23351 24.701157,-12.35038 39.232484,-12.35062 14.53114,2.4e-4 27.6102,4.11711 39.23721,12.35062 11.62675,8.23396 19.86207,18.96998 24.70597,32.2081 9.03771,26.16146 13.55665,50.05853 13.55682,71.69128 -1.7e-4,21.63299 -4.51911,45.53006 -13.55682,71.69129 -4.8439,13.23835 -13.07922,23.97437 -24.70597,32.2081 -11.62701,8.23375 -24.70607,12.35061 -39.23721,12.35061 -14.531327,0 -27.608808,-4.11686 -39.232484,-12.35061 -11.623778,-8.23373 -19.857514,-18.96975 -24.701233,-32.2081 z"
           id="path3138"
           style="font-size:310px;fill:#a9a8a7" />
      </g>
    </g>
  </g>
</svg>
