<?xml version="1.0" encoding="UTF-8" standalone="no"?>
<!-- Created with Inkscape (http://www.inkscape.org/) -->

<svg
   xmlns:svg="http://www.w3.org/2000/svg"
   xmlns="http://www.w3.org/2000/svg"
   version="1.1"
   width="499.99994"
   height="500"
   id="svg2">
  <defs
     id="defs4" />
  <g
     transform="translate(609.00002,-20.42876)"
     id="layer1">
    <g
       id="g2999">
      <g
         transform="translate(-731.04729,-255.75238)"
         id="layer1-2">
        <path
           d="m 372.04724,776.18114 c -138.07116,0 -249.99997,-111.92881 -249.99997,-249.99999 0,-138.0712 111.92881,-250.00001 249.99997,-250.00001 138.07116,0 249.99996,111.92881 249.99996,249.99999 0,138.0712 -111.9288,250.00001 -249.99996,250.00001 z"
           id="path8679"
           style="fill:#ffffff;fill-opacity:1;fill-rule:nonzero;stroke:none" />
        <g
           transform="matrix(0,1,-1,0,755.838,-414.5332)"
           id="g10332">
          <path
             d="M 739.45605,440.4455 808.46758,384.02392 736.192,327.13604 739.45605,440.4455 z"
             id="path10320"
             style="fill:#000000;fill-rule:evenodd;stroke:none" />
          <path
             d="m 1141.9726,440.44551 -69.0116,-56.42159 72.2756,-56.88788 -3.264,113.30947 z"
             id="path10322"
             style="fill:#000000;fill-rule:evenodd;stroke:none" />
        </g>
        <path
           d="m 620.65661,526.1811 c 0,-137.22627 -111.39506,-248.59375 -248.62501,-248.59375 -137.22993,0 -248.59376,111.36749 -248.59375,248.59375 0,137.2263 111.36382,248.5937 248.59375,248.5938 137.22994,0 248.62501,-111.3675 248.62501,-248.5938 z m -48.625,0 c 0,110.4 -89.59999,200 -200.00001,200 -110.40003,0 -200,-89.6 -200,-200 1e-5,-110.40004 89.59998,-200 200,-200 110.40002,0 200.00001,89.59997 200.00001,200 z"
           id="path3063"
           style="fill:#d40000;fill-opacity:1;fill-rule:nonzero;stroke:none" />
      </g>
      <g
         id="text2956"
         style="font-size:11px;font-style:normal;font-variant:normal;font-weight:normal;font-stretch:normal;text-align:start;line-height:100%;writing-mode:lr-tb;text-anchor:start;fill:#000000;fill-opacity:1;stroke:none;font-family:Drogowskaz;-inkscape-font-specification:Drogowskaz">
        <path
           d="m -469.68649,261.3606 0,-18.05115 c 1.82286,0.54838 3.64578,0.82253 5.46875,0.82245 4.55723,8e-5 8.43092,-1.59497 11.62109,-4.78516 3.19003,-3.19002 4.78508,-7.06371 4.78516,-11.62109 -8e-5,-4.55719 -1.59513,-8.43089 -4.78516,-11.6211 -3.19017,-3.18999 -7.06386,-4.78504 -11.62109,-4.78515 -4.55735,1.1e-4 -8.43104,1.59516 -11.6211,4.78515 -3.19014,3.19021 -4.78519,7.06391 -4.78515,11.6211 l -21.875,0 c -2e-5,-10.57424 3.7366,-19.59802 11.20987,-27.07138 7.47321,-7.47312 16.4961,-11.20974 27.06871,-11.20987 10.57249,1.3e-4 19.59628,3.73675 27.07138,11.20987 7.47493,7.47336 11.21244,16.49714 11.21254,27.07138 -1e-4,8.56637 -2.55289,16.22297 -7.65839,22.96982 8.75133,8.74792 13.12704,19.32047 13.12714,31.71768 -1e-4,12.21214 -4.28413,22.55683 -12.8521,31.03409 -8.56814,8.47727 -18.86743,12.7159 -30.8979,12.71591 -12.03058,-10e-6 -22.32988,-4.23864 -30.89791,-12.71591 -8.56808,-8.47726 -12.8521,-18.82195 -12.85209,-31.03409 l 21.875,0 c -4e-5,6.01708 2.14153,11.16717 6.42471,15.45028 4.2831,4.28317 9.4323,6.42474 15.44762,6.42472 6.0152,2e-5 11.16529,-2.14155 15.45028,-6.42472 4.28485,-4.28311 6.42731,-9.4332 6.42739,-15.45028 -8e-5,-6.01701 -2.14254,-11.1671 -6.42739,-15.45029 -4.28499,-4.28308 -9.43419,-6.42465 -15.44761,-6.42471 -1.82297,6e-5 -3.64589,0.27421 -5.46875,0.82245 z"
           id="path2991"
           style="font-size:175px;fill:#000000" />
        <path
           d="m -399.19928,323.42877 0,-15 15,0 c -2e-5,6.37452 -1.65652,12.24915 -4.96948,17.6239 -3.31301,5.37475 -7.71852,9.50011 -13.21655,12.3761 z"
           id="path2993"
           style="font-size:120px" />
        <path
           d="m -341.82501,248.42877 -1.31104,15.75073 c 2.12399,-0.50042 4.24924,-0.75067 6.37574,-0.75073 8.24946,6e-5 15.31183,2.93768 21.18713,8.81287 5.87518,5.87529 8.8128,12.93766 8.81287,21.18713 -7e-5,8.24954 -2.93769,15.31191 -8.81287,21.18714 -5.8753,5.87524 -12.93767,8.81286 -21.18713,8.81286 -1.5015,0 -3.064,-0.12451 -4.6875,-0.37353 l -21.18897,-3.37647 1.12427,-15 22.31323,3.56323 c 0.87399,0.12453 1.68698,0.18679 2.43897,0.18677 4.12349,2e-5 7.65437,-1.43736 10.59265,-4.31213 2.93818,-2.87474 4.40729,-6.43735 4.40735,-10.68787 -6e-5,-4.25045 -1.46917,-7.81307 -4.40735,-10.68786 -2.93828,-2.87472 -6.46916,-4.31209 -10.59265,-4.31214 l -22.5,0 3.75,-45 45,0 0,15 z"
           id="path2995"
           style="font-size:120px;fill:#000000" />
        <path
           d="m -288.57428,263.42877 15,0 0,7.5 c 3.74997,-4.99994 8.74997,-7.49994 15,-7.5 5.74946,6e-5 10.49922,2.18756 14.24927,6.5625 4.37494,-4.37494 9.62518,-6.56244 15.75073,-6.5625 6.24992,6e-5 11.56242,2.18756 15.9375,6.5625 4.37491,4.37505 6.56241,9.68755 6.5625,15.9375 l 0,37.5 -15,0 0,-35.625 c -8e-5,-2.62447 -0.90645,-4.8431 -2.71912,-6.65588 -1.81281,-1.8127 -4.03144,-2.71907 -6.65588,-2.71912 -2.62458,5e-5 -4.8432,0.90642 -6.65588,2.71912 -1.81281,1.81278 -2.71918,4.03141 -2.71912,6.65588 l 0,35.625 -15,0 0,-35.625 c -4e-5,-2.62447 -0.90642,-4.8431 -2.71912,-6.65588 -1.81278,-1.8127 -4.03141,-2.71907 -6.65588,-2.71912 -2.62454,5e-5 -4.84317,0.90642 -6.65588,2.71912 -1.81277,1.81278 -2.71915,4.03141 -2.71912,6.65588 l 0,35.625 -15,0 z"
           id="path2997"
           style="font-size:120px;fill:#000000" />
      </g>
    </g>
  </g>
</svg>
