<?xml version="1.0" encoding="UTF-8" standalone="no"?>
<!-- Created with Inkscape (http://www.inkscape.org/) -->

<svg
   xmlns:dc="http://purl.org/dc/elements/1.1/"
   xmlns:cc="http://creativecommons.org/ns#"
   xmlns:rdf="http://www.w3.org/1999/02/22-rdf-syntax-ns#"
   xmlns:svg="http://www.w3.org/2000/svg"
   xmlns="http://www.w3.org/2000/svg"
   xmlns:sodipodi="http://sodipodi.sourceforge.net/DTD/sodipodi-0.dtd"
   xmlns:inkscape="http://www.inkscape.org/namespaces/inkscape"
   height="498.97775"
   width="498.97797"
   id="svg2"
   sodipodi:version="0.32"
   inkscape:version="0.48.2 r9819"
   version="1.0"
   sodipodi:docname="AJAX.svg">
  <defs
     id="defs4">
    <pattern
       patternUnits="userSpaceOnUse"
       width="370"
       height="476"
       patternTransform="translate(18.50938,18)"
       id="pattern5932">
      <rect
         ry="20"
         rx="20"
         y="0"
         x="0"
         height="476"
         width="370"
         id="rect5934"
         style="fill:#00e5ff;fill-opacity:1" />
    </pattern>
    <pattern
       id="pattern4002"
       patternTransform="translate(18.50938,18)"
       height="476"
       width="370"
       patternUnits="userSpaceOnUse">
      <rect
         style="fill:#00e5ff;fill-opacity:1"
         id="rect2240"
         width="370"
         height="476"
         x="0"
         y="0"
         rx="20"
         ry="20" />
    </pattern>
    <marker
       style="overflow:visible"
       id="Arrow2Lstart"
       refX="0"
       refY="0"
       orient="auto"
       inkscape:stockid="Arrow2Lstart">
      <path
         transform="matrix(1.1,0,0,1.1,1.1,0)"
         d="M 8.7185878,4.0337352 -2.2072895,0.01601326 8.7185884,-4.0017078 c -1.7454984,2.3720609 -1.7354408,5.6174519 -6e-7,8.035443 z"
         style="font-size:12px;fill-rule:evenodd;stroke-width:0.625;stroke-linejoin:round"
         id="path5785"
         inkscape:connector-curvature="0" />
    </marker>
  </defs>
  <sodipodi:namedview
     id="base"
     pagecolor="#ffffff"
     bordercolor="#666666"
     borderopacity="1.0"
     inkscape:pageopacity="0.0"
     inkscape:pageshadow="2"
     inkscape:cx="126.8475"
     inkscape:cy="249.48887"
     inkscape:zoom="1.2720002"
     inkscape:document-units="px"
     inkscape:current-layer="layer1"
     inkscape:window-width="1280"
     inkscape:window-height="1004"
     inkscape:window-x="-8"
     inkscape:window-y="-8"
     showgrid="false"
     fit-margin-top="0"
     fit-margin-left="0"
     fit-margin-right="0"
     fit-margin-bottom="0"
     inkscape:window-maximized="1" />
  <metadata
     id="metadata7">
    <rdf:RDF>
      <cc:Work
         rdf:about="">
        <dc:format>image/svg+xml</dc:format>
        <dc:type
           rdf:resource="http://purl.org/dc/dcmitype/StillImage" />
      </cc:Work>
    </rdf:RDF>
  </metadata>
  <g
     inkscape:groupmode="layer"
     inkscape:label="Warstwa 1"
     id="layer1"
     transform="translate(-3.0110038,-3.0111274)">
    <path
       sodipodi:type="arc"
       style="fill:#003399;fill-opacity:1;stroke:none"
       id="path1307"
       sodipodi:cx="394.28571"
       sodipodi:cy="549.50507"
       sodipodi:rx="234.28572"
       sodipodi:ry="254.28572"
       d="m 628.57143,549.50507 c 0,140.43812 -104.89329,254.28572 -234.28572,254.28572 -129.39244,0 -234.28573,-113.8476 -234.28573,-254.28572 0,-140.43813 104.89329,-254.28572 234.28573,-254.28572 129.39243,0 234.28572,113.84759 234.28572,254.28572 z"
       transform="matrix(1.064892,0,0,0.981136,-167.3717,-286.6392)" />
    <g
       id="g2506"
       transform="matrix(0.6317703,0,0,0.6317703,26.22127,-12.143543)">
      <path
         inkscape:connector-curvature="0"
         id="path1959"
         style="fill:#ffffff;fill-rule:evenodd;stroke:none"
         d="m 287.66234,123.64624 -39.1875,17.3125 -11.34375,47.59375 -9.15625,74.625 10.28125,2.78125 15.5,-57.84375 -6.28125,49.6875 4.65625,1 -11,131.71875 21.3125,0 21.3125,-125.0625 30.9375,106.53125 22,0 9.3125,-23.3125 -11.3125,-4.96875 -20,-112.21875 9.5625,-52.21875 50.375,74.1875 2.90625,-3.90625 26.75,16.46875 14.8125,-5.4375 -13.40625,56.96875 5.40625,1.46875 -17.15625,66.21875 16.90625,2.28125 21.4375,-62.65625 26.4375,48.75 10.3125,-0.3125 6.8125,-18.3125 -7.78125,0 -16.25,-41.90625 8.28125,-33.09375 15.03125,28.875 14.84375,-5.4375 -30.59375,-60.96875 -28.03125,-4.21875 -26.84375,12.25 -20.22699,-12.63942 -51.58551,-92.57933 -24.65625,-19.96875 -20.375,-1.65625 z" />
      <path
         inkscape:connector-curvature="0"
         id="path1961"
         style="fill:#ffffff;fill-opacity:1;fill-rule:nonzero;stroke:none"
         d="m 320.3683,102.16633 c 0.004,11.1263 -9.0149,20.14793 -20.14122,20.14793 -11.12631,0 -20.14492,-9.02163 -20.14121,-20.14793 -0.004,-11.126311 9.0149,-20.14794 20.14121,-20.14794 11.12632,0 20.14493,9.021629 20.14122,20.14794 z" />
      <path
         inkscape:connector-curvature="0"
         id="path1968"
         style="fill:#ffffff;fill-opacity:1;fill-rule:nonzero;stroke:none"
         d="m 467.24957,223.21242 c 0.003,9.28725 -7.52483,16.8177 -16.81209,16.8177 -9.28726,0 -16.81519,-7.53045 -16.81209,-16.8177 -0.003,-9.28725 7.52483,-16.8177 16.81209,-16.8177 9.28726,0 16.81519,7.53045 16.81209,16.8177 z" />
    </g>
    <g
       transform="matrix(0.5703363,0,0,0.5703363,110.42739,226.85813)"
       id="g2477"
       inkscape:label="Layer 1">
      <g
         id="g15488">
        <g
           id="kolo-przod"
           style="fill:#ffffff;fill-opacity:1;stroke:none"
           transform="matrix(0.5,0,0,0.5,0,-1.17923)">
          <path
             inkscape:connector-curvature="0"
             id="opona"
             d="M 235.40625,400 C 146.67242,401.12523 75,473.50078 75,562.5 75,652.2 147.8,725 237.5,725 327.2,725 400,652.2 400,562.5 400,472.8 327.2,400 237.5,400 c -0.70078,0 -1.39506,-0.009 -2.09375,0 z m 0.3125,25 c 0.5912,-0.007 1.18828,0 1.78125,0 C 313.4,425 375,486.6 375,562.5 375,638.4 313.4,700 237.5,700 161.6,700 100,638.4 100,562.5 100,487.19297 160.63628,425.95212 235.71875,425 z"
             style="fill:#ffffff;fill-opacity:1;fill-rule:nonzero;stroke:none" />
          <path
             d="m 262.5,562.5 c 0,13.80712 -11.19288,25 -25,25 -13.80712,0 -25,-11.19288 -25,-25 0,-13.80712 11.19288,-25 25,-25 13.80712,0 25,11.19288 25,25 z"
             sodipodi:ry="25"
             sodipodi:rx="25"
             sodipodi:cy="562.5"
             sodipodi:cx="237.5"
             id="piasta"
             style="fill:#ffffff;fill-opacity:1;fill-rule:nonzero;stroke:none"
             sodipodi:type="arc" />
        </g>
        <g
           id="kolo-tyl"
           transform="matrix(0.5,0,0,0.5,262.5,-1.17923)"
           style="fill:#ffffff;fill-opacity:1;stroke:none">
          <path
             inkscape:connector-curvature="0"
             id="path1324"
             d="M 235.40625,400 C 146.67242,401.12523 75,473.50078 75,562.5 75,652.2 147.8,725 237.5,725 327.2,725 400,652.2 400,562.5 400,472.8 327.2,400 237.5,400 c -0.70078,0 -1.39506,-0.009 -2.09375,0 z m 0.3125,25 c 0.5912,-0.007 1.18828,0 1.78125,0 C 313.4,425 375,486.6 375,562.5 375,638.4 313.4,700 237.5,700 161.6,700 100,638.4 100,562.5 100,487.19297 160.63628,425.95212 235.71875,425 z"
             style="fill:#ffffff;fill-opacity:1;fill-rule:nonzero;stroke:none" />
          <path
             d="m 262.5,562.5 c 0,13.80712 -11.19288,25 -25,25 -13.80712,0 -25,-11.19288 -25,-25 0,-13.80712 11.19288,-25 25,-25 13.80712,0 25,11.19288 25,25 z"
             sodipodi:ry="25"
             sodipodi:rx="25"
             sodipodi:cy="562.5"
             sodipodi:cx="237.5"
             id="path1326"
             style="fill:#ffffff;fill-opacity:1;fill-rule:nonzero;stroke:none"
             sodipodi:type="arc" />
        </g>
        <path
           inkscape:connector-curvature="0"
           style="fill:none;stroke:#ffffff;stroke-width:12.5;stroke-linecap:butt;stroke-linejoin:miter;stroke-miterlimit:4;stroke-opacity:1;stroke-dasharray:none"
           d="m 268.75,280.07077 112.5,0"
           id="wzdlozlancucha" />
        <path
           inkscape:connector-curvature="0"
           style="fill:none;stroke:#ffffff;stroke-width:12.5;stroke-linecap:butt;stroke-linejoin:miter;stroke-miterlimit:4;stroke-opacity:1;stroke-dasharray:none"
           d="m 268.75,280.07077 50,-156.25"
           id="slupek-siodelko" />
        <path
           inkscape:connector-curvature="0"
           style="fill:none;stroke:#ffffff;stroke-width:12.5;stroke-linecap:butt;stroke-linejoin:miter;stroke-miterlimit:4;stroke-opacity:1;stroke-dasharray:none"
           d="m 150,155.07077 155,0 76.25,125"
           id="poprzeczka" />
        <path
           inkscape:connector-curvature="0"
           style="fill:none;stroke:#ffffff;stroke-width:12.5;stroke-linecap:butt;stroke-linejoin:miter;stroke-miterlimit:4;stroke-opacity:1;stroke-dasharray:none"
           d="m 118.75,280.07077 c 0,0 45.43762,-159.21067 46.25,-161.25 3.44421,-8.6461 4.58543,-11.57 15,-13.75 1.52135,-0.31846 20,0 20,0"
           id="kierownica"
           sodipodi:nodetypes="cssc" />
        <path
           sodipodi:type="arc"
           style="fill:#ffffff;fill-opacity:1;fill-rule:nonzero;stroke:none"
           id="kolo=pedalowe"
           sodipodi:cx="537.5"
           sodipodi:cy="562.5"
           sodipodi:rx="50"
           sodipodi:ry="50"
           d="m 587.5,562.5 c 0,27.61424 -22.38576,50 -50,50 -27.61424,0 -50,-22.38576 -50,-50 0,-27.61424 22.38576,-50 50,-50 27.61424,0 50,22.38576 50,50 z"
           transform="matrix(0.5,0,0,0.5,0,-1.17923)" />
        <path
           inkscape:connector-curvature="0"
           style="fill:#ffffff;fill-opacity:1;fill-rule:evenodd;stroke:none"
           d="m 312.5,136.32077 37.5,0 0,-25 c 0,0 -74.86099,-0.69658 -81.25,0 -5.92954,0.64648 -3.66565,11.4204 0,12.5 62.41528,18.38246 43.75,12.5 43.75,12.5 z"
           id="siodelko"
           sodipodi:nodetypes="ccczsc" />
        <path
           inkscape:connector-curvature="0"
           style="fill:none;stroke:#ffffff;stroke-width:12.5;stroke-linecap:butt;stroke-linejoin:miter;stroke-miterlimit:4;stroke-opacity:1;stroke-dasharray:none"
           d="M 268.75,280.07077 148,178.82077"
           id="ukos-damka" />
      </g>
    </g>
    <rect
       style="fill:#ffffff;fill-opacity:1"
       id="rect3447"
       width="8"
       height="487.48599"
       x="247.98888"
       y="-496.354"
       rx="0"
       ry="0"
       transform="matrix(0,1,-1,0,0,0)" />
  </g>
</svg>
