<?xml version="1.0" encoding="UTF-8" standalone="no"?>
<!-- Created with Inkscape (http://www.inkscape.org/) -->
<svg
   xmlns:dc="http://purl.org/dc/elements/1.1/"
   xmlns:cc="http://creativecommons.org/ns#"
   xmlns:rdf="http://www.w3.org/1999/02/22-rdf-syntax-ns#"
   xmlns:svg="http://www.w3.org/2000/svg"
   xmlns="http://www.w3.org/2000/svg"
   xmlns:sodipodi="http://sodipodi.sourceforge.net/DTD/sodipodi-0.dtd"
   xmlns:inkscape="http://www.inkscape.org/namespaces/inkscape"
   version="1.0"
   width="500.00009"
   height="500.00021"
   id="svg10969"
   inkscape:version="0.46"
   sodipodi:docname="Znak_B-35a.svg"
   sodipodi:version="0.32"
   inkscape:output_extension="org.inkscape.output.svg.inkscape">
  <metadata
     id="metadata16">
    <rdf:RDF>
      <cc:Work
         rdf:about="">
        <dc:format>image/svg+xml</dc:format>
        <dc:type
           rdf:resource="http://purl.org/dc/dcmitype/StillImage" />
      </cc:Work>
    </rdf:RDF>
  </metadata>
  <sodipodi:namedview
     pagecolor="#ffffff"
     bordercolor="#666666"
     borderopacity="1"
     objecttolerance="10"
     gridtolerance="10"
     guidetolerance="10"
     inkscape:pageopacity="0"
     inkscape:pageshadow="2"
     inkscape:window-width="1280"
     inkscape:window-height="712"
     id="namedview14"
     showgrid="false"
     fit-margin-top="0"
     fit-margin-left="0"
     fit-margin-right="0"
     fit-margin-bottom="0"
     inkscape:zoom="0.9439996"
     inkscape:cx="45.313688"
     inkscape:cy="249.92903"
     inkscape:window-x="-4"
     inkscape:window-y="-4"
     inkscape:window-maximized="1"
     inkscape:current-layer="g14051" />
  <defs
     id="defs10971" />
  <g
     transform="translate(-178.57139,-162.36211)"
     id="layer1">
    <g
       id="g14051">
      <path
         d="m 390.42439,244.34138 a 140.71134,122.87468 0 1 1 -281.42267,0 140.71134,122.87468 0 1 1 281.42267,0 z"
         transform="matrix(-1.743421,0,0,1.996373,863.9264,-75.43433)"
         style="fill:#ffffff;fill-opacity:1;fill-rule:nonzero;stroke:none"
         id="path8679"
         inkscape:connector-curvature="0" />
      <path
         d="m 31.428558,219.50504 a 310,310 0 1 1 -619.999998,0 310,310 0 1 1 619.999998,0 z"
         transform="matrix(0.639516,0,0,0.639516,606.7223,271.9852)"
         style="fill:#0f00fb;fill-opacity:1;fill-rule:nonzero;stroke:none"
         id="path11256"
         inkscape:connector-curvature="0" />
      <rect
         width="467.75955"
         height="49.133499"
         ry="0"
         x="-828.50928"
         y="-36.009895"
         transform="matrix(-0.707129,-0.707085,-0.707129,0.707085,0,0)"
         style="fill:#ff0000;fill-opacity:1;fill-rule:nonzero;stroke:#ffffff;stroke-width:3.5;stroke-miterlimit:4;stroke-opacity:1;stroke-dasharray:none;stroke-dashoffset:0"
         id="rect3274" />
      <path
         d="m 428.57143,162.36211 c 138.00256,0 250.00005,112.01821 250.00005,250.01582 0,137.99759 -111.9975,249.98439 -250.00005,249.98438 -138.00256,0 -250.00003,-111.98679 -250.00004,-249.98438 0,-137.9976 111.99748,-250.01582 250.00004,-250.01582 z m 0,48.89701 c -111.02455,0 -201.1314,90.10121 -201.1314,201.11881 1e-5,111.01761 90.10684,201.1188 201.1314,201.1188 111.02457,-10e-6 201.1314,-90.1012 201.1314,-201.1188 0,-111.0176 -90.10684,-201.11881 -201.1314,-201.11881 z"
         style="fill:#ff0000;fill-opacity:1;fill-rule:nonzero;stroke:none"
         id="path3063"
         inkscape:connector-curvature="0" />
      <path
         d="m 390.42439,244.34138 a 140.71134,122.87468 0 1 1 -281.42267,0 140.71134,122.87468 0 1 1 281.42267,0 z"
         transform="matrix(-1.743421,0,0,1.996373,863.9264,-75.43433)"
         style="fill:#ffffff;fill-opacity:1;fill-rule:nonzero;stroke:none"
         id="path14027"
         inkscape:connector-curvature="0" />
      <path
         d="m 31.428558,219.50504 a 310,310 0 1 1 -619.999998,0 310,310 0 1 1 619.999998,0 z"
         transform="matrix(0.63871,0,0,0.63871,606.4978,272.1621)"
         style="fill:#003399;fill-opacity:1;fill-rule:nonzero;stroke:none"
         id="path14029"
         inkscape:connector-curvature="0" />
      <rect
         width="467.75986"
         height="49.13353"
         ry="0"
         x="-828.50952"
         y="-36.010014"
         transform="matrix(-0.707129,-0.707085,-0.707129,0.707085,0,0)"
         style="fill:#d40000;fill-opacity:1;fill-rule:nonzero;stroke:#ffffff;stroke-width:3.50000238;stroke-miterlimit:4;stroke-opacity:1;stroke-dasharray:none;stroke-dashoffset:0"
         id="rect14031" />
      <path
         d="m 428.57143,162.36211 c 138.00256,0 250.00005,112.01821 250.00005,250.01582 0,137.99759 -111.9975,249.98439 -250.00005,249.98438 -138.00256,0 -250.00003,-111.98679 -250.00004,-249.98438 0,-137.9976 111.99748,-250.01582 250.00004,-250.01582 z m 0,48.89701 c -111.02455,0 -201.1314,90.10121 -201.1314,201.11881 1e-5,111.01761 90.10684,201.1188 201.1314,201.1188 111.02457,-10e-6 201.1314,-90.1012 201.1314,-201.1188 0,-111.0176 -90.10684,-201.11881 -201.1314,-201.11881 z"
         style="fill:#d40000;fill-opacity:1;fill-rule:nonzero;stroke:none"
         id="path14033"
         inkscape:connector-curvature="0" />
      <path
         transform="translate(144.66109,133.1187)"
         style="font-size:40px;font-style:normal;font-weight:normal;fill:#ffffff;fill-opacity:1;stroke:none;stroke-width:1px;stroke-linecap:butt;stroke-linejoin:miter;stroke-opacity:1;font-family:Bitstream Vera Sans"
         d="M 59.500005,196.62728 L 64.500024,216.62735 L 69.500043,216.62735 L 73.250057,204.62731 L 77.000072,216.62735 L 82.000091,216.62735 L 87.00011,196.62728 L 82.000091,196.62728 L 79.222331,207.73838 L 75.750067,196.62728 L 70.750048,196.62728 L 67.277784,207.73838 L 64.500024,196.62728 L 59.500005,196.62728 L 59.500005,196.62728 z M 112.59985,220.65966 L 109.63046,224.61807 C 110.47206,225.25317 111.39984,225.7456 112.41379,226.09535 C 113.42773,226.44508 114.49814,226.62243 115.62505,226.62739 C 118.44796,226.55446 120.80213,225.57529 122.68757,223.68988 C 124.57298,221.80445 125.55215,219.45028 125.62509,216.62735 L 125.62509,196.62728 L 120.62507,196.62728 L 120.62507,197.97597 C 119.88585,197.54485 119.09563,197.21295 118.25441,196.98025 C 117.41316,196.74758 116.5367,196.62993 115.62505,196.62728 C 112.80211,196.70021 110.44794,197.67938 108.56252,199.56479 C 106.67709,201.45022 105.69792,203.8044 105.62501,206.62731 C 105.69792,209.45025 106.67709,211.80442 108.56252,213.68984 C 110.44794,215.57526 112.80211,216.55443 115.62505,216.62735 C 116.5367,216.62472 117.41316,216.50706 118.25441,216.27438 C 119.09563,216.04169 119.88585,215.70979 120.62507,215.27865 L 120.62507,216.62735 C 120.58859,218.06876 120.09901,219.26408 119.15631,220.2133 C 118.21358,221.16252 117.0365,221.65471 115.62505,221.68987 C 115.05526,221.6874 114.51443,221.59661 114.00257,221.41752 C 113.49069,221.23841 113.02312,220.98579 112.59985,220.65966 L 112.59985,220.65966 z M 110.62503,206.62731 C 110.66148,205.18591 111.15106,203.9906 112.09378,203.04136 C 113.03649,202.09215 114.21357,201.59997 115.62505,201.56479 C 117.0365,201.59997 118.21358,202.09215 119.15631,203.04136 C 120.09901,203.9906 120.58859,205.18591 120.62507,206.62731 C 120.58859,208.06873 120.09901,209.26405 119.15631,210.21326 C 118.21358,211.16249 117.0365,211.65468 115.62505,211.68983 C 114.21357,211.65468 113.03648,211.16249 112.09378,210.21327 C 111.15106,209.26405 110.66148,208.06873 110.62503,206.62731 L 110.62503,206.62731 z M 131.84376,206.62731 C 131.9199,209.63597 132.95761,212.13994 134.9569,214.13921 C 136.95617,216.13849 139.46013,217.17621 142.4688,217.25235 C 145.47744,217.17621 147.98141,216.13849 149.9807,214.13921 C 151.97996,212.13994 153.01767,209.63597 153.09384,206.62731 C 153.01767,203.61867 151.97996,201.1147 149.9807,199.11541 C 147.98141,197.11615 145.47744,196.07844 142.4688,196.00227 C 139.46013,196.07844 136.95617,197.11615 134.9569,199.11541 C 132.95761,201.1147 131.9199,203.61867 131.84376,206.62731 L 131.84376,206.62731 z M 136.84378,206.62731 C 136.88408,205.03451 137.43346,203.70888 138.49191,202.65042 C 139.55034,201.592 140.87597,201.04262 142.4688,201.00229 C 144.0616,201.04262 145.38723,201.592 146.44569,202.65042 C 147.50411,203.70888 148.05349,205.03451 148.09382,206.62731 C 148.05349,208.22014 147.50411,209.54577 146.44569,210.6042 C 145.38723,211.66265 144.0616,212.21203 142.4688,212.25234 C 140.87597,212.21203 139.55034,211.66265 138.49191,210.6042 C 137.43346,209.54577 136.88408,208.22014 136.84378,206.62731 L 136.84378,206.62731 z M 157.96876,206.62731 C 158.04167,209.45025 159.02084,211.80442 160.90627,213.68984 C 162.79169,215.57526 165.14586,216.55443 167.9688,216.62735 C 168.88045,216.62472 169.75691,216.50706 170.59816,216.27438 C 171.43938,216.04169 172.2296,215.70979 172.96882,215.27865 L 172.96882,216.62735 L 177.96884,216.62735 L 177.96884,186.62724 L 172.96882,186.62724 L 172.96882,197.97597 C 172.2296,197.54485 171.43938,197.21295 170.59816,196.98025 C 169.75691,196.74758 168.88045,196.62993 167.9688,196.62728 C 165.14586,196.70021 162.79169,197.67938 160.90627,199.56479 C 159.02084,201.45022 158.04167,203.8044 157.96876,206.62731 L 157.96876,206.62731 z M 162.96878,206.62731 C 163.00523,205.18591 163.49481,203.9906 164.43753,203.04136 C 165.38024,202.09215 166.55732,201.59997 167.9688,201.56479 C 169.38025,201.59997 170.55733,202.09215 171.50006,203.04136 C 172.44276,203.9906 172.93234,205.18591 172.96882,206.62731 C 172.93234,208.06873 172.44276,209.26405 171.50006,210.21326 C 170.55733,211.16249 169.38025,211.65468 167.9688,211.68983 C 166.55732,211.65468 165.38023,211.16249 164.43753,210.21327 C 163.49481,209.26405 163.00523,208.06873 162.96878,206.62731 L 162.96878,206.62731 z M 197.75006,211.62733 L 190.85422,211.62733 L 197.75006,198.93978 L 197.75006,196.62728 L 184.00001,196.62728 L 184.00001,201.62729 L 190.87504,201.62729 L 184.00001,214.31497 L 184.00001,216.62735 L 197.75006,216.62735 L 197.75006,211.62733 L 197.75006,211.62733 z M 203.40626,211.62733 L 203.40626,216.62735 L 208.40628,216.62735 L 208.40628,211.62733 L 203.40626,211.62733 L 203.40626,211.62733 z"
         id="flowRoot2389" />
      <path
         transform="translate(301.09001,47.087589)"
         style="font-size:40px;font-style:normal;font-weight:normal;fill:#ffffff;fill-opacity:1;stroke:none;stroke-width:1px;stroke-linecap:butt;stroke-linejoin:miter;stroke-opacity:1;font-family:Bitstream Vera Sans"
         d="M 62.611344,215.14852 L 103.26783,215.14852 L 71.360088,302.64886 L 90.174062,302.64886 L 123.87525,209.67975 L 123.86169,197.64846 L 62.611344,197.64846 L 62.611344,215.14852 L 62.611344,215.14852 z M 141.37505,258.89869 L 176.37518,258.89869 L 176.37518,241.39862 L 141.37505,241.39862 L 141.37505,258.89869 L 141.37505,258.89869 z M 193.87502,215.14852 L 193.87502,232.64859 L 211.37508,232.64859 L 211.37508,302.64886 L 228.87515,302.64886 L 228.87515,197.64846 L 211.37508,197.70314 C 211.24965,202.6431 209.54048,206.75436 206.24758,210.03694 C 202.95465,213.31971 198.83046,215.02357 193.87502,215.14852 L 193.87502,215.14852 z M 285.75017,250.14866 C 280.81,250.03478 276.6902,248.34857 273.39074,245.09004 C 270.09122,241.83163 268.37767,237.68448 268.2501,232.64859 C 268.37768,227.60372 270.09123,223.42012 273.39075,220.09776 C 276.6902,216.77557 280.81001,215.05291 285.75017,214.92977 C 290.69024,215.05291 294.81004,216.77557 298.10959,220.09776 C 301.40902,223.42012 303.12257,227.60372 303.25023,232.64859 C 303.12257,237.68448 301.40902,241.83163 298.10959,245.09004 C 294.81004,248.34857 290.69024,250.03477 285.75017,250.14866 L 285.75017,250.14866 z M 285.75017,197.64846 C 275.86989,197.90377 267.63028,201.33086 261.03132,207.92974 C 254.43232,214.52881 251.00523,222.76842 250.75003,232.64859 C 251.0009,242.46986 254.39197,250.67331 260.92326,257.25896 C 267.4545,263.8447 275.62068,267.30744 285.42182,267.64719 L 262.12508,307.02387 L 282.40743,307.02387 L 315.93559,250.36456 C 317.48057,247.75367 318.66715,244.95671 319.49532,241.97366 C 320.32335,238.99074 320.74167,235.88238 320.7503,232.64859 C 320.49501,222.76842 317.06792,214.52882 310.46901,207.92974 C 303.86996,201.33086 295.63036,197.90377 285.75017,197.64846 L 285.75017,197.64846 z"
         id="flowRoot2397" />
    </g>
  </g>
</svg>
