<?xml version="1.0" encoding="UTF-8" standalone="no"?>
<!-- Created with Inkscape (http://www.inkscape.org/) -->

<svg
   xmlns:svg="http://www.w3.org/2000/svg"
   xmlns="http://www.w3.org/2000/svg"
   version="1.0"
   width="500"
   height="500"
   id="svg2056">
  <defs
     id="defs2058" />
  <g
     transform="translate(-338.40625,-247.53125)"
     id="layer1">
    <g
       id="g4545">
      <rect
         width="496.74591"
         height="496.74591"
         ry="39.845932"
         x="340.03796"
         y="249.14993"
         id="rect2064"
         style="fill:#ffffff;fill-opacity:1;fill-rule:nonzero;stroke:#000000;stroke-width:3.25408435;stroke-miterlimit:4;stroke-opacity:1;stroke-dasharray:none;stroke-dashoffset:0" />
      <g
         transform="matrix(0.8,0,0,0.8,-344.1604,180.2045)"
         id="g3652">
        <g
           transform="translate(914.3078,148.0385)"
           id="g3644">
          <path
             d="m 390.42439,244.34138 a 140.71133,122.87468 0 1 1 -281.42267,0 140.71133,122.87468 0 1 1 281.42267,0 z"
             transform="matrix(1.776687,0,0,2.034593,-192.2554,-248.5258)"
             id="path8679"
             style="fill:#ffffff;fill-opacity:1;fill-rule:nonzero;stroke:none" />
          <path
             d="m 250,1.390623 c -137.22627,0 -248.59375,111.395057 -248.59375,248.625007 0,137.22993 111.36749,248.59376 248.59375,248.59375 137.22627,0 248.59374,-111.36382 248.59375,-248.59375 C 498.59375,112.78569 387.22627,1.390623 250,1.390623 z m 0,48.625 c 110.40002,1e-6 200,89.599987 200,200.000007 -10e-6,110.40003 -89.59997,200 -200,200 -110.40004,-10e-6 -200,-89.59998 -200,-200 C 50,139.61561 139.59997,50.015623 250,50.015623 z"
             id="path3063"
             style="fill:#a9a8a7;fill-opacity:1;fill-rule:nonzero;stroke:none" />
        </g>
        <g
           transform="translate(600.2316,178.1396)"
           id="g3648" />
      </g>
    </g>
    <g
       id="text2822"
       style="font-size:219.26715088px;font-style:normal;font-variant:normal;font-weight:bold;font-stretch:normal;text-align:start;line-height:125%;writing-mode:lr-tb;text-anchor:start;fill:#000000;fill-opacity:1;stroke:none;font-family:Drogowskaz;-inkscape-font-specification:Drogowskaz Bold">
      <path
         d="m 513.50946,496.97485 0,-22.89917 c 2.31243,0.69566 4.62493,1.04344 6.9375,1.04334 5.78117,1e-4 10.69523,-2.02334 14.74219,-6.07031 4.04678,-4.04677 6.07022,-8.96083 6.07031,-14.74219 -9e-5,-5.78112 -2.02353,-10.69518 -6.07031,-14.74219 -4.04696,-4.04673 -8.96102,-6.07017 -14.74219,-6.07031 -5.78131,1.4e-4 -10.69537,2.02358 -14.74219,6.07031 -4.04692,4.04701 -6.07036,8.96107 -6.07031,14.74219 l -27.75,0 c -2e-5,-13.41417 4.74015,-24.86149 14.22052,-34.34198 9.4803,-9.48018 20.92649,-14.22035 34.33859,-14.22052 13.41197,1.7e-4 24.85928,4.74034 34.34198,14.22052 9.48249,9.48049 14.22379,20.92781 14.22391,34.34198 -1.2e-4,10.86705 -3.23852,20.57999 -9.71521,29.13885 11.10169,11.09737 16.65258,24.50941 16.65271,40.23615 -1.3e-4,15.49198 -5.43472,28.61495 -16.3038,39.36896 -10.8693,10.75403 -23.93469,16.13104 -39.1962,16.13104 -15.26165,0 -28.32704,-5.37701 -39.1962,-16.13104 -10.86922,-10.75401 -16.30381,-23.87698 -16.3038,-39.36896 l 27.75,0 c -4e-5,7.6331 2.71669,14.16636 8.15021,19.59979 5.43341,5.4335 11.96554,8.15023 19.5964,8.15021 7.63072,2e-5 14.16398,-2.71671 19.5998,-8.15021 5.43563,-5.43343 8.15349,-11.96669 8.15359,-19.59979 -10e-5,-7.633 -2.71796,-14.16626 -8.15359,-19.59979 -5.43582,-5.4334 -11.96795,-8.15013 -19.59641,-8.15021 -2.31257,8e-5 -4.62507,0.34786 -6.9375,1.04333 z"
         id="path2827"
         style="font-size:222px;fill:#a9a8a7;fill-opacity:1" />
      <path
         d="m 635.08508,451.18329 c -4.62504,13.41442 -6.93753,27.17423 -6.9375,41.27948 -3e-5,14.10541 2.31246,27.86523 6.9375,41.27948 1.39107,4.15983 3.99376,7.56986 7.80808,10.2301 3.81421,2.66031 8.15015,3.99045 13.00781,3.99042 4.85754,3e-5 9.19347,-1.33011 13.00781,-3.99042 3.81419,-2.66024 6.41462,-6.07027 7.8013,-10.2301 4.62491,-13.41425 6.93741,-27.17407 6.9375,-41.27948 -9e-5,-14.10525 -2.31259,-27.86506 -6.9375,-41.27948 -1.38668,-4.15966 -3.98711,-7.56969 -7.8013,-10.2301 -3.81434,-2.66014 -8.15027,-3.99028 -13.00781,-3.99042 -4.85766,1.4e-4 -9.1936,1.33028 -13.00781,3.99042 -3.81432,2.66041 -6.41701,6.07044 -7.80808,10.2301 z m -24.97229,92.61969 c -6.47682,-18.73481 -9.71522,-35.8482 -9.71521,-51.34021 -10e-6,-15.49185 3.23839,-32.60523 9.71521,-51.34021 3.46873,-9.4802 9.36515,-17.16858 17.68927,-23.06516 8.32405,-5.89626 17.68922,-8.84446 28.09552,-8.84463 10.40618,1.7e-4 19.77247,2.94837 28.09891,8.84463 8.32625,5.89658 14.2238,13.58496 17.69266,23.06516 6.47217,18.73498 9.70831,35.84836 9.70843,51.34021 -1.2e-4,15.49201 -3.23626,32.6054 -9.70843,51.34021 -3.46886,9.48037 -9.36641,17.16874 -17.69266,23.06515 -8.32644,5.89643 -17.69273,8.84464 -28.09891,8.84464 -10.4063,0 -19.77147,-2.94821 -28.09552,-8.84464 -8.32412,-5.89641 -14.22054,-13.58478 -17.68927,-23.06515 z"
         id="path2829"
         style="font-size:222px;fill:#a9a8a7;fill-opacity:1" />
    </g>
  </g>
  <path
     d="M 445.9924,3.2676819 3.2044921,446.05555 c 0,0 -5.8534001,27.19875 9.2006069,41.02035 14.6684,13.46758 41.52332,9.70353 41.52332,9.70353 L 496.71624,53.991552 c 0,0 6.8308,-25.09194 -10.1802,-40.53737 C 468.36294,-3.0463181 445.9924,3.2676819 445.9924,3.2676819 z"
     id="path2944"
     style="fill:#000000;fill-opacity:1;fill-rule:nonzero;stroke:none" />
</svg>
